<svg width="50" height="50" viewBox="0 0 50 50" fill="none" xmlns="http://www.w3.org/2000/svg">
<circle cx="24.5" cy="27.5" r="21.5" fill="#737178"/>
<path d="M25 0C11.1979 0 0 11.1979 0 25C0 38.8021 11.1979 50 25 50C38.8021 50 50 38.8021 50 25C50 11.1979 38.8021 0 25 0ZM24.2187 39.5833C23.7037 39.5833 23.2002 39.4306 22.772 39.1445C22.3437 38.8583 22.0099 38.4516 21.8128 37.9757C21.6157 37.4999 21.5641 36.9763 21.6646 36.4711C21.7651 35.966 22.0131 35.5019 22.3773 35.1377C22.7415 34.7735 23.2055 34.5255 23.7107 34.425C24.2159 34.3246 24.7395 34.3761 25.2153 34.5732C25.6912 34.7703 26.0979 35.1041 26.384 35.5324C26.6702 35.9606 26.8229 36.4641 26.8229 36.9792C26.8229 37.6698 26.5486 38.3322 26.0602 38.8206C25.5718 39.309 24.9094 39.5833 24.2187 39.5833ZM28.5729 26.3021C26.4622 27.7187 26.1719 29.0169 26.1719 30.2083C26.1719 30.6918 25.9798 31.1555 25.638 31.4973C25.2961 31.8392 24.8324 32.0312 24.349 32.0312C23.8655 32.0312 23.4018 31.8392 23.06 31.4973C22.7181 31.1555 22.526 30.6918 22.526 30.2083C22.526 27.3555 23.8385 25.0872 26.5391 23.2734C29.0495 21.5885 30.4687 20.5208 30.4687 18.1732C30.4687 16.5768 29.5573 15.3646 27.6706 14.4674C27.2266 14.2565 26.2383 14.0508 25.0221 14.0651C23.4961 14.0846 22.3112 14.4492 21.3984 15.1836C19.6771 16.569 19.5312 18.0768 19.5312 18.099C19.5197 18.3383 19.4611 18.5731 19.3589 18.7899C19.2566 19.0066 19.1126 19.2011 18.9352 19.3622C18.7577 19.5233 18.5503 19.6479 18.3247 19.7289C18.0991 19.8098 17.8598 19.8455 17.6204 19.834C17.3811 19.8224 17.1463 19.7639 16.9295 19.6616C16.7128 19.5593 16.5183 19.4153 16.3572 19.2379C16.1961 19.0605 16.0715 18.853 15.9905 18.6275C15.9096 18.4019 15.8739 18.1626 15.8854 17.9232C15.8997 17.6068 16.1198 14.7565 19.1107 12.3503C20.6615 11.1029 22.6341 10.4544 24.9701 10.4258C26.6237 10.4063 28.1771 10.6862 29.2305 11.1836C32.3828 12.6745 34.1146 15.1602 34.1146 18.1732C34.1146 22.5781 31.1706 24.556 28.5729 26.3021Z" fill="#3C3549"/>
</svg>
