<svg width="51" height="51" viewBox="0 0 51 51" fill="none" xmlns="http://www.w3.org/2000/svg">
<path d="M47.7954 36.4353C47.7912 36.4049 47.7875 36.3744 47.7816 36.3442C47.7766 36.3193 47.7697 36.2952 47.7636 36.2707C47.757 36.2447 47.7513 36.2186 47.7435 36.1929C47.7362 36.1689 47.7272 36.1457 47.7188 36.1222C47.7098 36.0965 47.7012 36.0708 47.6908 36.0456C47.6819 36.0241 47.6714 36.0035 47.6615 35.9825C47.6493 35.9562 47.6375 35.9298 47.6237 35.9041C47.6134 35.8848 47.6015 35.8665 47.5904 35.8477C47.5751 35.8217 47.5604 35.7956 47.5434 35.7704C47.5302 35.7507 47.5154 35.7323 47.5014 35.7132C47.4847 35.6904 47.4687 35.6672 47.4505 35.6452C47.4274 35.6171 47.4024 35.5907 47.3774 35.5642C47.3666 35.5527 47.3571 35.5405 47.3458 35.5292L42.5645 30.748C42.2656 30.4491 41.8602 30.2811 41.4375 30.2811C41.0148 30.2811 40.6094 30.4491 40.3105 30.748C40.0116 31.0469 39.8436 31.4523 39.8436 31.875C39.8436 32.2977 40.0116 32.7031 40.3105 33.002L42.3711 35.0625L34.289 35.0627L19.3048 14.0848C19.0095 13.6723 18.6203 13.3361 18.1692 13.1039C17.7182 12.8718 17.2183 12.7505 16.711 12.75H6.375C5.95231 12.75 5.54693 12.9179 5.24805 13.2168C4.94916 13.5157 4.78125 13.9211 4.78125 14.3437C4.78125 14.7664 4.94916 15.1718 5.24805 15.4707C5.54693 15.7696 5.95231 15.9375 6.375 15.9375L16.711 15.9373L31.6952 36.9152C31.9905 37.3277 32.3797 37.6639 32.8308 37.896C33.2818 38.1282 33.7817 38.2495 34.289 38.25H42.371L40.3105 40.3105C40.0116 40.6094 39.8436 41.0148 39.8436 41.4375C39.8436 41.8602 40.0116 42.2656 40.3105 42.5645C40.6094 42.8634 41.0148 43.0314 41.4375 43.0314C41.8602 43.0314 42.2656 42.8634 42.5645 42.5645L47.3458 37.7833C47.3571 37.772 47.3666 37.7598 47.3774 37.7483C47.4024 37.7218 47.4274 37.6954 47.4505 37.6673C47.4687 37.6453 47.4847 37.6221 47.5014 37.5993C47.5154 37.5802 47.5302 37.5618 47.5434 37.5421C47.5604 37.5169 47.5751 37.4908 47.5904 37.4648C47.6015 37.446 47.6134 37.4277 47.6237 37.4084C47.6375 37.3827 47.6493 37.3563 47.6615 37.33C47.6713 37.309 47.6818 37.2884 47.6908 37.2669C47.7012 37.2417 47.7098 37.216 47.7188 37.1903C47.7272 37.1668 47.7362 37.1436 47.7435 37.1196C47.7513 37.0939 47.757 37.0678 47.7636 37.0418C47.7697 37.0173 47.7766 36.9932 47.7816 36.9683C47.7875 36.9381 47.7912 36.9076 47.7954 36.8772C47.7983 36.8561 47.8024 36.8354 47.8045 36.814C47.8149 36.7091 47.8149 36.6034 47.8045 36.4985C47.8024 36.4771 47.7983 36.4564 47.7954 36.4353Z" fill="#737178"/>
<path d="M28.4906 21.313C28.6609 21.4347 28.8535 21.5217 29.0574 21.5689C29.2613 21.6162 29.4725 21.6228 29.679 21.5884C29.8854 21.554 30.0831 21.4793 30.2607 21.3685C30.4382 21.2576 30.5922 21.1129 30.7139 20.9426L34.2889 15.9376H42.371L40.3104 17.9981C40.0115 18.297 39.8436 18.7024 39.8436 19.1251C39.8436 19.5478 40.0115 19.9532 40.3104 20.2521C40.6093 20.551 41.0147 20.719 41.4374 20.719C41.8602 20.719 42.2656 20.551 42.5645 20.2521L47.3457 15.4709C47.357 15.4596 47.3665 15.4474 47.3773 15.4359C47.4023 15.4094 47.4273 15.383 47.4505 15.3549C47.4687 15.3329 47.4846 15.3097 47.5014 15.2869C47.5154 15.2678 47.5302 15.2494 47.5434 15.2297C47.5603 15.2045 47.5751 15.1784 47.5904 15.1524C47.6015 15.1336 47.6133 15.1153 47.6236 15.096C47.6374 15.0703 47.6492 15.0439 47.6615 15.0176C47.6713 14.9966 47.6818 14.976 47.6908 14.9545C47.7012 14.9293 47.7097 14.9036 47.7188 14.8779C47.7271 14.8544 47.7362 14.8312 47.7435 14.8072C47.7513 14.7815 47.757 14.7554 47.7635 14.7294C47.7696 14.7049 47.7766 14.6808 47.7815 14.6559C47.7875 14.6257 47.7911 14.5952 47.7953 14.5648C47.7982 14.5437 47.8023 14.523 47.8045 14.5016C47.8149 14.3967 47.8149 14.291 47.8045 14.1861C47.8023 14.1647 47.7982 14.144 47.7953 14.1229C47.7911 14.0925 47.7875 14.062 47.7815 14.0318C47.7766 14.0069 47.7696 13.9828 47.7635 13.9583C47.757 13.9323 47.7513 13.9062 47.7435 13.8805C47.7362 13.8565 47.7271 13.8333 47.7188 13.8098C47.7097 13.7841 47.7012 13.7584 47.6908 13.7332C47.6818 13.7117 47.6713 13.6911 47.6615 13.6701C47.6492 13.6438 47.6374 13.6174 47.6236 13.5917C47.6133 13.5724 47.6015 13.5541 47.5904 13.5353C47.5751 13.5093 47.5603 13.4832 47.5434 13.458C47.5302 13.4383 47.5154 13.4199 47.5014 13.4008C47.4846 13.378 47.4687 13.3548 47.4505 13.3328C47.4273 13.3047 47.4023 13.2783 47.3773 13.2518C47.3665 13.2403 47.357 13.2281 47.3457 13.2168L42.5645 8.43558C42.2656 8.13667 41.8602 7.96875 41.4374 7.96875C41.0147 7.96875 40.6093 8.13667 40.3104 8.43558C40.0115 8.73449 39.8436 9.13989 39.8436 9.56261C39.8436 9.98532 40.0115 10.3907 40.3104 10.6896L42.371 12.7501H34.2889C33.7817 12.7506 33.2818 12.8719 32.8308 13.104C32.3797 13.3361 31.9905 13.6723 31.6952 14.0847L28.1201 19.0897C27.8745 19.4336 27.7755 19.8611 27.8449 20.2781C27.9144 20.695 28.1466 21.0673 28.4906 21.313Z" fill="#737178"/>
<path d="M22.5094 29.6876C22.3391 29.5659 22.1465 29.479 21.9426 29.4317C21.7387 29.3845 21.5275 29.3779 21.321 29.4123C21.1145 29.4467 20.9169 29.5214 20.7393 29.6322C20.5617 29.743 20.4077 29.8877 20.2861 30.0581L16.711 35.063H6.375C5.95231 35.063 5.54693 35.2309 5.24805 35.5298C4.94916 35.8287 4.78125 36.2341 4.78125 36.6568C4.78125 37.0795 4.94916 37.4849 5.24805 37.7837C5.54693 38.0826 5.95231 38.2505 6.375 38.2505H16.711C17.2183 38.25 17.7181 38.1287 18.1692 37.8966C18.6202 37.6646 19.0095 37.3284 19.3048 36.9159L22.8798 31.9109C23.1255 31.567 23.2245 31.1395 23.155 30.7226C23.0856 30.3056 22.8533 29.9334 22.5094 29.6876Z" fill="#737178"/>
</svg>
