<svg width="581" height="325" viewBox="0 0 581 325" fill="none" xmlns="http://www.w3.org/2000/svg">
<path d="M395 98.0017C398.5 97.3351 406.2 96.2017 409 97.0017C412.5 98.0017 416.5 100.503 421.5 97.0017C425.5 94.2003 428.833 92.5 430 92C430.333 99.5 430.8 115 430 117C429 119.5 421.5 121 421.5 124.5V129.937C421.524 130.134 421.522 130.325 421.5 130.5V129.937C421.34 128.638 420.017 127.11 415.5 128.5C410.3 130.1 403 126.5 400 124.5L395 98.0017Z" fill="#08932C" stroke="#85ECA9" stroke-width="0.5"/>
<path d="M385 83C387 90.2 384.167 97.3333 382.5 100C385.7 98 394.5 97.8333 398.5 98H404.5C405.5 97.5 407.6 96.3 408 95.5C408.5 94.5 410.5 90.5 410.5 87.5C410.5 84.5 412 78 410.5 74C409 70 407.5 75.5 404.5 78C401.5 80.5 403 74.5 404.5 69.5C406 64.5 399 57.5 396 57.5C393 57.5 391 58 390 64C389.2 68.8 387.333 66.6667 386.5 65C385.167 68 383 75.8 385 83Z" fill="#08932C" stroke="#85ECA9" stroke-width="0.5"/>
<path d="M384 99.0006C380.8 100.601 376.833 101.5 376 101.5C376 103.1 377.5 110.334 377.5 114C377.5 116.833 377.8 123.9 379 129.5C380.2 135.1 378.5 139.5 377.5 141C378.833 140.667 382.3 139.9 385.5 139.5C389.5 139 394.5 135 396 131C397.2 127.8 399.5 127 400.5 127L399 99.0006C395.333 98.334 387.2 97.4006 384 99.0006Z" fill="#08932C" stroke="#85ECA9" stroke-width="0.5"/>
<path d="M374.001 93H351.001C360.501 101 352.5 100.5 350 103C347.5 105.5 351.001 112 350 113.5C348.999 115 348.001 116 347.001 120C346.001 124 356.501 134 358.001 138C359.201 141.2 364.501 145.333 367.001 147C368.334 147.167 371.301 147.4 372.501 147C374.001 146.5 376.501 140.5 378.501 138C380.501 135.5 379.501 131 378.501 128C377.501 125 377.001 103 376.501 100.5C376.101 98.5 374.667 94.6667 374.001 93Z" fill="#08932C" stroke="#85ECA9" stroke-width="0.5"/>
<path d="M346 49.5014C344 51.1014 339.834 51.5014 338 51.5014C335.5 55.5028 336.5 62.5 336.5 65C336.5 67.5 338 70 342 74.5C346 79 346 79 346 84.5C346 88.9 349.667 92 351.5 93L373.5 93.5C373.834 91.8333 374.3 87.1 373.5 81.5C372.7 75.9 375.5 68.1667 377 65L371 71.5L372 66.5C372.5 64 377.5 59.5 380 57.5C382 55.9 391.834 52.8343 396.5 51.5014C395.167 50.8347 391.8 49.1011 389 47.5C385.5 45.4986 382.5 47.5 380 51.5014C377.5 55.5028 372 49.5014 367.5 47.5C363.9 45.8989 367.334 42.4995 369.5 41L362 46C360.167 47.8338 355.7 51.5014 352.5 51.5014C348.5 51.5014 348.5 47.5014 346 49.5014Z" fill="#08932C" stroke="#85ECA9" stroke-width="0.5"/>
<path d="M349.501 123.5C346.701 120.3 347.334 115.833 348.001 114L316 116C318 119.167 316 118.5 316 120.5C316 122.5 322 144.833 322 152L323.5 157L362.5 155.5C363.667 154.167 366.1 151.1 366.5 149.5C367 147.5 367 146 362.5 142.5C358 139 359.5 137.5 357 133.5C354.5 129.5 353.001 127.5 349.501 123.5Z" fill="#56BD30" stroke="#83E45F" stroke-width="0.5"/>
<path d="M318 122L264.5 120L263.5 151L322.5 153C322.833 146 323.3 131.5 322.5 129.5C321.7 127.5 319.167 123.667 318 122Z" fill="#56BD30" stroke="#83E45F" stroke-width="0.5"/>
<path d="M304 92C300.8 90 266.667 88.5 250 88V108L264 109.5V120L317.5 122L310 102.5C309.333 99.8333 307.2 94 304 92Z" fill="#56BD30" stroke="#83E45F" stroke-width="0.5"/>
<path d="M346.5 86H308V96C308 98.8 311.667 110.833 313.5 116.5C324.5 115.833 347.1 114.5 349.5 114.5C352.5 114.5 351 109 349.5 106C348 103 356 101.5 356 98.5C356 95.5 352.5 95 349.5 92.5C347.1 90.5 346.5 87.3333 346.5 86Z" fill="#56BD30" stroke="#83E45F" stroke-width="0.5"/>
<path d="M296.5 58H254L250 88C257.667 88.8333 274.5 90.5 280.5 90.5C288 90.5 293 91.5 298.5 91.5C302.9 91.5 306.667 94.8333 308 96.5C307.833 95.6667 307.6 93.5 308 91.5C308.4 89.5 306.833 69.6667 306 60L296.5 58Z" fill="#56BD30" stroke="#83E45F" stroke-width="0.5"/>
<path d="M316 28.4985C314.4 27.2985 306.667 27.9985 303 28.4985C303 34.497 303 36 304.5 40C306 44 306 48.5 306 51.5C306 54.5 305.5 59 306 63.5C306.4 67.1 307.167 80 307.5 86H346.5V81.5C346.5 79.5 345 79 343 76C341 73 340 74 339 71.5C338 69 336.5 69 336.5 63.5V55.5C336.5 52.5 342 47 343 44C343.8 41.6 353 37.6667 357.5 36H352C348.5 36 345.5 34.5 343 34.5H336.5C334 34.5 334 32.5 331.5 32.5H324.5C321.5 32.5 318 29.9985 316 28.4985Z" fill="#56BD30" stroke="#83E45F" stroke-width="0.5"/>
<path d="M303.5 28L256.5 26.5L254 58H272.5H293.5C295.1 58 302.167 59.3333 305.5 60V58V45C305.5 44 305 40 303.5 39C302.3 38.2 303 31.3333 303.5 28Z" fill="#56BD30" stroke="#83E45F" stroke-width="0.5"/>
<path d="M510.263 27.3047C509.308 27.3047 509.07 29.6913 509.07 30.8846V33.8679C510.561 36.8512 510.263 35.9562 508.473 37.7462C507.041 39.1781 507.28 49.8782 507.578 55.0492C510.362 54.6514 516.17 53.6769 517.124 52.9609C518.079 52.2449 519.511 51.4693 520.108 51.1709C520.406 50.8726 521.003 50.097 521.003 49.381C521.003 48.486 519.511 47.8893 518.616 46.696C517.721 45.5027 517.423 44.3094 517.124 43.1161C516.826 41.9228 514.141 32.3763 513.246 29.9896C512.351 27.603 511.456 27.3047 510.263 27.3047Z" fill="#F0211B" stroke="#FF6265" stroke-width="0.5"/>
<path d="M460.142 64.2966C460.381 65.49 456.264 70.1638 454.176 72.3515L455.369 75.0365C465.413 73.147 485.978 69.1892 487.887 68.4732C489.796 67.7573 490.273 68.7716 490.273 69.3682L495.047 73.2465L501.61 75.9314V79.5114C501.809 79.9092 502.565 80.5854 503.997 80.108C505.429 79.6307 513.543 74.1415 517.421 71.4565H515.631C514.935 71.4565 513.424 71.6355 512.946 72.3515C512.469 73.0675 508.77 74.4398 506.98 75.0365C505.985 75.5337 503.997 76.2298 503.997 75.0365V71.4565C503.997 70.5615 502.207 61.015 502.207 58.0318C502.207 55.0485 501.013 50.8719 500.715 49.3802C500.417 47.8886 499.223 47.8886 498.925 46.6953C498.627 45.502 498.03 39.2371 497.732 38.0438C497.493 37.0891 496.638 34.8616 496.24 33.8672L486.395 36.2538C485.898 36.4527 484.546 37.0891 483.114 38.0438C481.324 39.2371 480.727 42.817 478.639 45.2037C476.55 47.5903 476.849 49.0819 478.639 49.3802C480.429 49.6786 478.639 50.5736 478.639 52.3635C478.639 54.1535 475.357 56.2418 474.462 56.8384C473.567 57.4351 469.689 58.0318 468.496 58.0318C467.302 58.0318 462.827 58.6284 460.142 59.5234C457.994 60.2394 458.253 61.8106 458.651 62.5067L460.142 64.2966Z" fill="#EE5F01" stroke="#F2AE7F" stroke-width="0.5"/>
<path d="M454.177 72.0534L450 75.9317C450.796 83.7879 452.566 99.5005 453.282 99.5005C454.177 99.5005 488.783 92.6389 489.678 92.3406C490.573 92.0423 492.959 90.2523 494.749 89.954C496.181 89.7153 497.335 87.269 497.732 86.0757C497.434 85.5785 496.599 84.5244 495.644 84.2857C494.451 83.9874 492.959 81.8991 492.959 81.0041V78.3192L494.749 72.9493C493.954 72.6506 492.243 71.8149 491.766 70.861C491.169 69.6685 490.573 69.3684 489.678 68.4735C488.962 67.7575 487.788 68.1751 487.291 68.4735L455.37 74.7383L454.177 72.0534Z" fill="#EE5F01" stroke="#F2AE7F" stroke-width="0.5"/>
<path d="M506.385 31.4795L495.943 34.1644C496.838 35.6561 498.33 40.4293 498.33 42.2193C498.33 44.0092 497.435 45.7992 498.33 47.2909C499.225 48.7825 501.612 55.3457 502.507 56.2407C503.223 56.9567 506.186 55.9424 507.578 55.3457V47.2909V40.4293C507.578 39.236 507.876 38.0427 509.368 37.446C510.86 36.8494 510.263 34.1644 509.368 34.1644C508.652 34.1644 509.07 31.9767 509.368 30.8828L506.385 31.4795Z" fill="#F0211B" stroke="#FF6265" stroke-width="0.5"/>
<path d="M501.91 76.2308L494.75 72.9492L492.96 79.5124C492.96 80.0096 493.139 81.3621 493.855 82.794C494.572 84.226 496.739 85.5784 497.734 86.0757C497.495 87.985 495.645 89.4567 494.75 89.9539C494.352 90.0534 493.438 90.6102 492.96 92.0422C492.364 93.8322 494.75 96.2188 496.839 96.2188C498.927 96.2188 498.032 97.1138 498.927 98.3071C499.822 99.5004 500.418 97.7104 501.015 96.2188C501.612 94.7272 501.91 92.6389 503.103 92.0422C504.297 91.4456 503.103 84.2857 503.103 82.794C503.103 81.3024 501.91 81.8991 501.015 81.0041C500.299 80.2881 501.313 79.7113 501.91 79.5124V76.2308Z" fill="#EE5F01" stroke="#F2AE7F" stroke-width="0.5"/>
<path d="M506.084 55.6482C503.22 56.6029 500.715 54.4549 500.715 55.0516C500.715 57.4382 501.908 63.3053 502.206 65.1947L517.719 60.7198C518.117 61.4159 519.091 62.8081 519.807 62.8081C520.523 62.8081 522.492 64.3992 523.387 65.1947L525.476 62.8081C525.774 63.007 526.55 63.2854 527.266 62.8081C528.161 62.2115 530.846 60.7198 530.547 59.5265C530.309 58.5719 528.26 57.9354 527.266 57.7365C527.564 58.0349 528.28 58.8105 528.757 59.5265C529.354 60.4215 526.371 61.0182 525.476 60.7198C524.581 60.4215 523.686 58.9299 523.387 57.7365C523.089 56.5432 521.896 57.1399 520.702 55.6482C519.509 54.1566 522.791 52.665 521.896 52.665C521.18 52.665 520.802 51.4717 520.702 50.875C520.305 51.0739 519.151 51.7103 517.719 52.665C515.929 53.8583 509.664 54.4549 506.084 55.6482Z" fill="#F0211B" stroke="#FF6265" stroke-width="0.5"/>
<path d="M515.334 61.0156L502.805 64.2972L503.998 70.5621V75.3354L508.175 71.7554L517.124 68.1755L515.334 61.0156Z" fill="#F0211B" stroke="#FF6265" stroke-width="0.5"/>
<path d="M517.721 60.418L515.334 61.313L516.527 66.6829L517.721 68.1745C518.417 67.5778 519.809 66.0862 519.809 64.8929C519.809 63.4012 521.002 62.8046 519.809 62.8046C518.854 62.8046 518.019 61.2135 517.721 60.418Z" fill="#F0211B" stroke="#FF6265" stroke-width="0.5"/>
<path d="M512.947 26.4106C511.753 27.1266 511.455 27.5045 511.455 27.6039C513.245 27.6039 515.93 39.8349 517.123 43.1165C518.078 45.7418 519.709 47.9892 520.405 48.7847C520.703 48.2875 521.36 47.1141 521.598 46.3981C521.897 45.5031 522.792 42.8182 522.493 41.6248C522.195 40.4315 523.388 40.1332 524.283 39.8349C525.178 39.5366 526.073 39.2382 526.67 38.6416C527.266 38.0449 527.863 37.1499 529.056 36.5533C530.25 35.9566 529.653 33.2717 529.653 32.0784C529.653 30.885 530.846 32.3767 531.741 32.0784C532.636 31.78 533.233 29.9901 534.128 29.9901C535.023 29.9901 535.918 30.5867 536.813 29.9901C537.529 29.5127 538.305 28.2004 538.603 27.6039C538.901 27.2061 539.796 26.1122 540.99 24.9185C542.481 23.4264 542.183 21.6369 540.99 20.1452C539.796 18.6536 539.498 20.1452 538.603 20.1452C537.708 20.1452 536.813 19.2507 536.813 18.0569V16.2674H534.128C533.134 13.5823 531.085 7.73478 530.846 5.82548C530.548 3.43886 529.355 1.94769 527.863 1.35066C526.371 0.753624 525.476 0.157344 524.283 1.94769C523.09 3.73803 522.493 3.141 520.405 1.94769C518.734 0.993039 518.516 1.54992 518.615 1.94769C517.72 4.73208 515.93 10.7185 515.93 12.3892V16.2674V19.2507C515.93 20.444 514.438 22.234 514.438 24.024C514.438 25.8139 514.438 25.5156 512.947 26.4106Z" fill="#F0211B" stroke="#FF6265" stroke-width="0.5"/>
<path d="M24.5 193C25.3 193.8 23.1667 194.667 22 195L19.5 193L22 189.5C22.5 190.333 23.7 192.2 24.5 193Z" fill="#FFB800" stroke="#E0BD1B" stroke-width="0.5"/>
<path d="M41.5 199.5C39.5 199.1 34.6667 197 32.5 196C33.1667 197.167 34.8 199.5 36 199.5C37.5 199.5 39 204 41.5 204.5C43.5 204.9 45.6667 202.333 46.5 201C45.6667 200.667 43.5 199.9 41.5 199.5Z" fill="#FFB800" stroke="#E0BD1B" stroke-width="0.5"/>
<path d="M46.5002 214.5L48.0002 208.5C50.0001 209.333 54.4 211.3 56 212.5C58 214 62.5 219 59.5 220.5C56.5 222 54.5 224 51.5 225.5C48.5 227 48.0002 222.5 48.0002 220.5C48.0002 218.5 46.0002 216.5 46.5002 214.5Z" fill="#FFB800" stroke="#E0BD1B" stroke-width="0.5"/>
<path d="M97.5004 303.001C95.5004 305.401 98.3337 306.334 100 306.501C100.834 306.501 102.5 306.101 102.5 304.5C102.5 302.499 103.5 300.001 102.5 297.501C101.5 295.001 100 296.001 97.5004 303.001Z" fill="#FFB800" stroke="#E0BD1B" stroke-width="0.5"/>
<path d="M105.5 85L72.9997 74.5C72.9997 75.5 72.7998 78.2 72 81C71.0003 84.5 67.9997 88 67.4997 94.5C66.9997 101 68.4997 109 69.4997 112C70.4997 115 72.9997 118 72.9997 122C72.9997 126 75.4997 127 75.4997 130.5C75.4997 134 74.4997 135 75.4997 141.5C76.4997 148 77.9997 159.5 80.4997 160C82.9997 160.5 88.9997 164 97.9997 172.5C105.2 179.3 105 184.667 104 186.5L124 188C125.333 185.667 128.5 179.9 130.5 175.5C132.5 171.1 131.333 167 130.5 165.5L96.4997 115L105.5 85Z" fill="#FFBB00" stroke="#FFD032" stroke-width="0.5"/>
<path d="M74.4997 65.5C75.2997 63.5 84.1664 44 88.4997 34.5C91.9994 34.5 97 41 99 42C101 43 111 45.5 113.5 46C115.5 46.4 130.333 48.5 137.5 49.5C138 52.5 133 60 132 62C131.2 63.6 129 80.6667 128 89L105.5 85C98.1667 82.8333 82.6 78.2 79 77L78.9984 76.9995C74.4996 75.4999 72.9996 74.9999 72.4997 74C71.9997 73 73.4997 68 74.4997 65.5Z" fill="#FFBB00" stroke="#FFD032" stroke-width="0.5"/>
<path d="M228 158L179 152L172.5 210L175.5 212C176.167 211.333 178.1 209.6 180.5 208C182.9 206.4 210.833 208.667 224.5 210L228 158Z" fill="#FEA108" stroke="#FFD032" stroke-width="0.5"/>
<path d="M179.5 152.5L139 146C135.8 154.8 132 162.667 130.5 165.5C130.833 166.333 131.5 168.4 131.5 170C131.5 172 130 176 128.5 178.5C127 181 124 186 124 189C124 192 145 203.5 150 206.5C154 208.9 166.333 210.5 172 211L179.5 152.5Z" fill="#FEA108" stroke="#FFD032" stroke-width="0.5"/>
<path d="M223.5 115.5C219.5 115.1 195.833 112.667 184.5 111.5C184.5 112.7 180.833 139.333 179 152.5C183.8 153.3 219.667 157.167 237 159L239.5 117L223.5 115.5Z" fill="#FEA108" stroke="#FFD032" stroke-width="0.5"/>
<path d="M230.5 32.5C204.1 30.5 165.5 24 149.5 21C144.5 26 149.5 36 149.5 41C149.5 46 155 47.5 154.5 54C154 60.5 157.5 60.5 159.5 67C161.1 72.2 169.166 72.1667 173 71.5L177.5 74V67L227.5 74L230.5 32.5Z" fill="#FEA108" stroke="#FFD032" stroke-width="0.5"/>
<path d="M178 74.5L175 72.5L170.5 97.5C169.7 99.9 170.833 106.5 171.5 109.5C176.7 111.1 208.333 114.167 223.5 115.5L227 74.5L178 66.5V74.5Z" fill="#FEA108" stroke="#FFD032" stroke-width="0.5"/>
<path d="M142.999 20L150.499 21.5C144.998 29 149 28 149 34C149 40 150.499 42.5 152 46C153.501 49.5 154.5 52.5 154.5 55.5C154.5 57.9 158.667 62.8333 160 65C159.2 71.8 167.333 71.3333 172.5 71L175 72.5L171 97.5L149 94.5L127.5 89.5C128.5 83 130.6 69 131 65C131.5 60 137.499 56 136.999 47.5C136.599 40.7 140.832 26.3333 142.999 20Z" fill="#FEA108" stroke="#FFD032" stroke-width="0.6"/>
<path d="M127.5 89L104.5 84.5L96 114.5L130.5 166C133.7 163.6 137.167 151.333 138.5 145.5L149.5 94.5L127.5 89Z" fill="#FEA108" stroke="#FFD032" stroke-width="0.5"/>
<path d="M179 152.5L138.5 146L150 94.5L171 97C168.6 102.2 170.667 107.833 172 110L184.5 111.5C184.5 114.7 180.833 140.167 179 152.5Z" fill="#FEA108" stroke="#FFD032" stroke-width="0.5"/>
<path d="M105 9.5L143.5 19.5C142.5 23.5 140.2 32.1 139 34.5C137.8 36.9 137.5 45.8333 137.5 50C135 49.3333 129.1 47.9 125.5 47.5C121 47 116.5 46 112 46C107.5 46 103 43.5 101 43.5C99.0002 43.5 95 42 94.5 39C94.1 36.6 90 35 88 34.5V11C90 11.8333 94.5 14.1 96.4998 16.5C98.9995 19.5 97.4998 23.5 96.4998 26C95.4998 28.5 99.4998 29 103 26C105.8 23.6 105.5 14 105 9.5Z" fill="#FFBB00" stroke="#FFD032" stroke-width="0.5"/>
<path d="M86.5 301.999C83.3 308.399 60.1667 316.332 49 319.499L53 321C75 316.5 91 304 94 301.999C97 299.998 99.5 295.999 98.5 293.5C97.5 291.001 102.5 285.5 104.5 282.5C106.1 280.1 107.833 282.5 108.5 284C107.333 285.166 104.9 287.9 104.5 289.5C104 291.5 104.5 292 106.5 293.5C108.5 295 110.5 289.5 114 285.5C117.5 281.5 114 284 128 285.5C142 287 144.5 290.5 147 292C149.5 293.5 152.5 295.999 156 298.5C159.5 301.001 158.5 300.5 160 301.999C161.2 303.198 164.833 305.833 166.5 307C166.5 306 166.9 304 168.5 304C170.5 304 173.5 304 173 301.999C172.5 299.998 169 297.5 166.5 295.999C164 294.498 159 289 156 287.5C153 285.999 149 284 148.5 285.5C148 287 145 287.5 141.5 285.5C138.7 283.9 136 283.833 135 284C132.667 272.666 127.5 248 125.5 240C123 230 114.5 230.5 108.5 230.5C102.5 230.5 95 227 89.5 227C84 227 84 232.5 77 236.5C70 240.5 74.5 240.5 75.5 244C76.5 247.5 81 248 82 250C83 252 79.5 253.499 77 251.999C74.5 250.499 72.5 249.499 69 251.999C66.2 253.999 67.8333 255.166 69 255.499V261.5C70.8333 261.666 75 261.9 77 261.5C79.5 261 80.5 260 81 264.5C81.5 269 78.5 268.5 74.5 269C70.5 269.5 69 270.5 67.5 273.5C66 276.5 67 280.5 69 284C70.6 286.8 74 287.5 75.5 287.5C75.5 289.833 75.8 294.5 77 294.5C78.5 294.5 81 295.999 82 295.999H86.5C87.8333 295.332 89.7 295.599 86.5 301.999Z" fill="#FFB800" stroke="#E0BD1B" stroke-width="0.5"/>
<path d="M65 286C63.4 286.4 62 284.833 61.5 284C61.5 283.5 62.2 282.5 65 282.5C68.5 282.5 67 285.5 65 286Z" fill="#FFB800" stroke="#E0BD1B" stroke-width="0.5"/>
<ellipse cx="3" cy="184.5" rx="3" ry="3.5" fill="#F9B906"/>
<path d="M431.5 206.961L431 204.961V204.461L459.5 199.461L468.5 197.961L471.5 196.461L473 194.961V192.961H476L477.5 194.461L480 197.961L480.5 199.961L477.5 200.461L476.5 202.461L482 202.961C482.167 203.794 482.4 205.561 482 205.961C481.6 206.361 480.833 206.794 480.5 206.961L479 208.961H476L476.5 211.961L479 212.961C479 214.128 478.9 216.461 478.5 216.461H476.5L472.5 217.961L472 219.961L470 220.961L468.5 223.961C468.333 225.128 467.8 227.461 467 227.461H463.5L462.5 228.961H461L459.5 225.961L456 224.961L455 222.961L452.5 221.961L451.5 220.961H443.5V221.961H441L440.5 220.961L441 218.961H432.5L431 219.961H427.5L426 220.961H424.5L423.5 221.961H423V222.961H417L416.5 223.961H412L412.5 220.961L414.5 219.461L415.5 217.961L418.5 216.461L422 213.461L423.5 211.961L427.5 209.961H429.5V207.461L431.5 206.961Z" fill="#007CD6" stroke="#7FDAFF" stroke-width="0.5"/>
<path d="M409.5 252.961L400.5 225.961V224.961H408.5L409 223.961H412.5H416.5L417 222.961H420.5L421 223.961V225.961L422 227.961H424.5L425 228.961L426.5 230.961L428.5 232.961L431.5 235.461L433.5 237.461L436 238.961L437.5 240.961L439.5 241.961L440 244.961L441.5 245.961L444.5 249.961L443.5 252.461V260.461H442.5V265.461H437.5V268.961L436 267.961L412 268.961V266.961H409L408.5 261.961V258.461L409.5 252.961Z" fill="#007CD6" stroke="#7FDAFF" stroke-width="0.5"/>
<path d="M426 194.961L418.5 204.461V205.961H424.5L430.5 204.461L468 197.961C469.667 197.461 473 196.161 473 194.961C473 193.461 472.5 186.961 471.5 183.961C470.5 180.961 469.5 181.461 468 181.461C466.5 181.461 464.5 172.961 463 172.961C461.8 172.961 457.833 171.294 456 170.461C454 173.794 449.3 180.661 446.5 181.461C443 182.461 443 185.461 443 186.961C443 188.161 440 192.794 438.5 194.961C434.9 197.761 428.667 196.128 426 194.961Z" fill="#007CD6" stroke="#7FDAFF" stroke-width="0.5"/>
<path d="M380.5 226.961V275.461H382.5V272.461H384.5L387 275.461H390V270.961H388V267.961L409 267.461L408.5 261.461V257.961L409.5 252.961L402 231.461L400.5 225.961H388V226.961H380.5Z" fill="#0394E7" stroke="#7FDAFF" stroke-width="0.5"/>
<path d="M390.5 270.961V275.461H391.5L392.5 274.461H394.5L397.5 272.961H403L405.5 275.461L409 276.961V278.961L412 281.461L413 279.961L413.5 278.461L416.5 276.461L418.5 274.461H423.5L426 276.961L430 281.461L434 283.961L433.5 286.961H436V288.961L435 289.961V295.961L437.5 296.461L438 299.961V302.961L442 305.961L443 308.961L446.5 309.961L447 313.961L452 314.461V316.961L454 318.461L455 321.461H457L462 320.961V300.961L459 298.461L458 294.961L456.5 294.461V291.461L453.5 289.961V286.961L452 284.461L450.5 282.461L449 279.961L447.5 278.461L446.5 276.461L445 274.461V271.461L443.5 268.961L443 264.961H437.5V268.961L436.5 267.961L412 268.961V266.961H409V267.961H388V270.961H390.5Z" fill="#007CD6" stroke="#7FDAFF" stroke-width="0.5"/>
<path d="M360.5 229.961L363 227.961H377V226.961H380V275.461H379L374 275.961L373.5 278.461H370L370.5 274.461H368.5L369.5 269.461H360.5L360 271.461H352.5V268.961L353.5 268.461V265.961L354.5 265.461V262.461H356.5V259.961H357.5V255.461H356.5V249.961H355.5V241.961L359.5 236.461L360.5 229.961Z" fill="#0394E7" stroke="#7FDAFF" stroke-width="0.5"/>
<path d="M256 212.961V207.461L324.5 209.461V220.461H326.5V244.961L323.5 243.961L320.5 241.961H313L310.5 243.961L309 241.961H295.5V238.961H287.5V235.961L279.5 234.961V213.961L256 212.961Z" fill="#49B0FB" stroke="#7FDAFF" stroke-width="0.5"/>
<path d="M252 258.461L220 256.961C220.667 258.628 223.2 263.061 228 267.461C229.833 268.461 233.8 270.961 235 272.961C236.2 274.961 235.5 279.461 235 281.461L247.5 290.461L251 289.461V284.961L253.5 282.461L258.5 281.461L265 282.461L266 285.961L270.5 289.461C270.833 290.461 271.5 292.661 271.5 293.461C271.5 294.261 273.5 297.128 274.5 298.461L277 303.961L281 306.461L281.5 312.961L283 314.461L285 319.461H287.5C288.5 319.961 290.8 321.261 292 322.461C293.2 323.661 295.833 322.961 297 322.461L300 323.961C300.5 322.794 301.2 320.261 300 319.461C298.8 318.661 298.5 313.461 298.5 310.961L300 308.461V305.461L303 302.961L305.5 300.961L307.5 298.461V294.961H311L314 296.961L319 293.461L322 290.461V287.461L324 285.961H333C332.5 284.461 331.8 281.461 333 281.461C334.5 281.461 335 272.961 335 270.461C335 268.461 331.667 263.961 330 261.961V245.461L324 243.961L321 241.461H313L311 243.961L309 241.461H303H295.5V239.461H287.5V236.461L279.5 235.461V213.961L255 212.961L252 258.461Z" fill="#49B0FB" stroke="#7FDAFF" stroke-width="0.5"/>
<path d="M324.5 220.461V214.461L362 212.961V216.461H360.5V218.461H365V223.961H363.5L363 227.961L360.5 229.961L359.5 235.961L355.5 241.961V250.461H330V245.461L326 243.961V220.461H324.5Z" fill="#4AB0FB" stroke="#7FDAFF" stroke-width="0.5"/>
<path d="M330 261.961V250.461H355.5V249.961H356.5V255.461H357.5V259.961H356.5V262.461H354.5V265.461L353.5 265.961V268.461L352.5 268.961V271.461H360C360.167 270.794 360.4 269.461 360 269.461H369.5L369 272.461L368.5 274.461H370.5L370 277.961L370.5 280.461L371.5 279.961L372 283.461H370L369.5 284.961L371.5 285.961L375 287.961L374 289.461L370.5 287.961L368.5 285.961H367L367.5 289.461H365V287.461H362V290.461H360V288.461H357V285.461H356H353V283.961H348V285.961H344.5V284.461H341.5H338.5V281.461H336.5V284.461H333.5L333 285.961C332 282.961 333 281.461 333.5 280.961C334 280.461 335.5 271.461 335 269.961C334.6 268.761 331.5 264.128 330 261.961Z" fill="#4AB0FB" stroke="#7FDAFF" stroke-width="0.5"/>
<path d="M363.5 223.961L363 227.961H377V226.961H379.5H388L388.5 225.961H400.5V224.961H408.5L409 223.961H412L412.5 220.961L414.5 219.461L415.5 217.961L418.5 216.461L420 214.961L422 213.461L423 211.961L425 210.961L427 209.961H429.5V207.461L431.5 206.961V204.961H426L425 205.961H419.5L419 204.961H418L415.5 206.461L408.5 207.461V208.461L396 207.461V208.461H384.5V209.961H379V212.461H370L366.5 212.961V220.461H365V223.961H363.5Z" fill="#0294E7" stroke="#7FDAFF" stroke-width="0.5"/>
<path d="M369.5 205.462V212.962H378.5V210.461H385V208.461H396H408.5L409 207.461L417.5 205.462C418.667 204.628 421.2 202.661 422 201.461C422.8 200.261 425.667 196.961 427 195.461C425.667 194.295 422.2 190.862 419 186.462C415 180.962 410.5 183.462 405 182.962C399.5 182.462 401 184.962 397 190.462C393 195.962 388 196.462 382 196.962C376 197.462 377 202.962 375.5 205.462C374.3 207.462 371 206.295 369.5 205.462Z" fill="#0294E7" stroke="#7FDAFF" stroke-width="0.5"/>
<path d="M421 223.961L420.5 222.961H423V221.961H424L424.5 220.961H426.5L427.5 219.961H430.5L432.5 218.961H441L440.5 220.961L441.5 221.961H444V220.961H451.5L452.5 221.961L455 222.961L456.5 224.961L459.5 226.461L461 228.961L460 230.961L459 232.961L457.5 234.461L457 237.461L454.5 239.461L453 241.961L451 243.461L449 245.961L447 246.961L446 249.961H444.5L441.5 245.961L440 244.961L439.5 241.961L437.5 240.961L436 238.961L432.5 236.961L427 231.461L424.5 227.961H422L421 225.461V223.961Z" fill="#007CD6" stroke="#7FDAFF" stroke-width="0.5"/>
<path d="M480.632 182.219L477.161 183.954C477.161 184.725 476.988 186.441 476.294 187.135C475.426 188.003 476.294 190.317 476.294 191.763C476.294 193.209 477.161 192.631 478.029 192.341C478.897 192.052 478.897 187.714 479.186 185.689C479.417 184.07 480.246 183.858 480.632 183.954V182.219Z" fill="#007CD6" stroke="#7FDAFF" stroke-width="0.5"/>
<path d="M476.295 178.461C477.915 178.692 480.44 178.364 481.501 178.171C481.501 177.786 481.443 176.899 481.212 176.436C480.922 175.858 480.344 175.279 478.898 174.412C477.452 173.544 477.452 172.676 476.873 172.387C476.295 172.098 477.163 171.23 476.873 170.652C476.584 170.073 476.295 169.495 475.717 168.916C475.138 168.338 474.849 166.892 475.138 166.313C475.427 165.735 474.849 164.578 474.27 164.578C473.808 164.578 472.921 165.735 472.535 166.313L476.295 178.461Z" fill="#007CD6" stroke="#7FDAFF" stroke-width="0.5"/>
<path d="M472.533 166.316L454.602 170.076L454.312 171.233C454.602 171.137 455.354 170.944 456.048 170.944C456.742 170.944 458.265 172.679 458.94 173.547L460.964 174.125C460.868 174.607 460.964 175.571 462.121 175.571C463.567 175.571 462.989 176.15 463.857 176.15C464.724 176.15 464.435 176.728 465.303 177.307C466.17 177.885 465.014 179.042 464.435 179.62C463.857 180.199 464.146 180.777 463.857 182.223C463.567 183.669 464.724 182.513 466.17 182.513C467.616 182.513 468.195 183.38 469.352 183.38C470.509 183.38 471.955 183.38 471.666 182.513C471.376 181.645 471.087 180.199 470.509 179.62C469.93 179.042 469.93 178.464 469.352 177.307C468.773 176.15 469.352 175.282 469.352 174.125C469.352 172.968 468.773 173.547 468.773 172.679C468.773 171.812 469.641 171.522 470.509 170.944C471.203 170.481 471.183 169.209 471.087 168.63H471.955C471.762 169.112 471.376 170.25 471.376 170.944C471.376 171.812 470.509 172.39 470.509 172.968C470.509 173.547 471.376 174.414 471.376 176.15C471.376 177.885 471.955 177.596 471.955 178.174C471.955 178.753 471.666 179.91 471.955 180.777C472.244 181.645 473.69 181.645 474.847 181.645C476.004 181.645 475.425 182.223 476.004 183.38C476.582 184.537 477.45 183.959 477.739 183.669C477.97 183.438 479.956 182.609 480.92 182.223L481.499 178.174C481.017 178.271 479.879 178.464 479.185 178.464H476.293C476.062 177.538 473.69 169.98 472.533 166.316Z" fill="#007CD6" stroke="#7FDAFF" stroke-width="0.5"/>
<path d="M422.5 189.162L423.078 191.186C424.235 193.211 427.995 198.128 429.73 199.284C431.466 200.441 432.623 199.574 433.201 199.284C433.779 198.995 434.358 199.284 434.936 199.284C435.515 199.284 436.382 198.417 437.25 198.128C438.118 197.838 437.828 197.26 438.118 196.971C438.407 196.682 439.275 196.392 440.431 196.103C441.588 195.814 442.167 195.235 442.456 194.368C442.745 193.5 441.878 192.632 442.456 191.765C443.034 190.897 444.77 185.98 445.059 185.113C445.348 184.245 445.637 183.956 446.216 184.534C446.679 184.997 447.951 184.727 448.53 184.534C448.819 183.57 449.397 181.469 449.397 180.775C449.397 180.08 450.554 180.485 451.132 180.775L453.735 176.726L454.025 173.255L458.652 175.569V173.255C458.652 172.387 457.495 171.23 456.338 170.941C455.182 170.652 454.603 170.941 454.025 171.23C453.446 171.52 453.157 172.098 452.868 172.387C452.579 172.677 451.132 172.387 450.554 172.098C449.976 171.809 449.686 172.677 449.397 173.255C449.166 173.718 446.794 175.954 445.637 177.015L444.77 172.098L436.672 173.255L435.226 164L434.069 164.578C434.261 165.35 434.647 167.066 434.647 167.76C434.647 168.454 434.261 172.291 434.069 174.123L430.887 178.172C428.863 177.593 429.441 178.172 428.863 178.75C428.284 179.329 427.995 181.064 427.995 181.642V183.088C427.995 183.956 426.549 182.221 425.971 182.221C425.392 182.221 424.814 184.534 425.392 185.402C425.971 186.27 425.103 186.27 424.814 187.427C424.582 188.352 423.175 188.969 422.5 189.162Z" fill="#007CD6" stroke="#7FDAFF" stroke-width="0.5"/>
<path d="M454.892 170.074L444.77 172.099L445.637 177.015C446.601 176.244 448.703 174.412 449.397 173.256C450.265 171.81 449.686 172.099 451.132 172.388C452.289 172.619 453.735 171.713 454.314 171.231L454.892 170.074Z" fill="#007CD6" stroke="#7FDAFF" stroke-width="0.5"/>
<path d="M465.305 175.858C464.611 175.396 464.438 176.051 464.438 176.437L465.305 177.303C465.594 177.015 465.999 176.321 465.305 175.858Z" fill="#007CD6" stroke="#7FDAFF" stroke-width="0.5"/>
<path d="M283.868 265.927H282.635V265.171H286.082V265.927H284.885V272.461H283.868V265.927ZM287.856 268.645L286.362 265.171H287.307L288.414 267.745L289.422 265.171H290.367L288.837 268.726L290.439 272.461H289.494L288.306 269.716L287.28 272.461H286.335L287.856 268.645Z" fill="black"/>
<path d="M296.93 226.542C296.216 226.542 295.703 226.341 295.391 225.939C295.085 225.531 294.932 224.943 294.932 224.175V221.412C294.932 220.656 295.088 220.083 295.4 219.693C295.712 219.303 296.222 219.108 296.93 219.108C297.638 219.108 298.145 219.306 298.451 219.702C298.763 220.092 298.919 220.662 298.919 221.412V224.184C298.919 224.94 298.763 225.522 298.451 225.93C298.139 226.338 297.632 226.542 296.93 226.542ZM296.93 225.741C297.308 225.741 297.563 225.63 297.695 225.408C297.827 225.186 297.893 224.85 297.893 224.4V221.205C297.893 220.761 297.827 220.434 297.695 220.224C297.563 220.008 297.308 219.9 296.93 219.9C296.546 219.9 296.288 220.008 296.156 220.224C296.024 220.434 295.958 220.761 295.958 221.205V224.4C295.958 224.85 296.024 225.186 296.156 225.408C296.288 225.63 296.546 225.741 296.93 225.741ZM299.919 219.171H300.936V222.609L302.61 219.171H303.555L302.115 222.384L303.789 226.461H302.799L301.404 223.041L300.936 223.887V226.461H299.919V219.171Z" fill="black"/>
<path d="M338.219 225.171H339.2L340.757 232.461H339.794L339.461 230.625H337.976L337.625 232.461H336.671L338.219 225.171ZM339.326 229.896L338.714 226.611L338.111 229.896H339.326ZM341.497 225.171H342.964C343.702 225.171 344.242 225.324 344.584 225.63C344.932 225.93 345.106 226.422 345.106 227.106C345.106 228.042 344.806 228.609 344.206 228.807L345.241 232.461H344.26L343.306 229.041H342.514V232.461H341.497V225.171ZM342.901 228.312C343.339 228.312 343.651 228.225 343.837 228.051C344.029 227.877 344.125 227.562 344.125 227.106C344.125 226.806 344.092 226.572 344.026 226.404C343.96 226.23 343.843 226.104 343.675 226.026C343.507 225.942 343.27 225.9 342.964 225.9H342.514V228.312H342.901Z" fill="black"/>
<path d="M365.184 247.171H366.183L367.47 253.084L368.766 247.171H369.756L369.891 254.461H369.072L368.991 249.169L367.758 254.461H367.182L365.958 249.169L365.877 254.461H365.049L365.184 247.171ZM372.727 254.542C372.115 254.542 371.647 254.353 371.323 253.975C371.005 253.597 370.828 253.078 370.792 252.418L371.692 252.175C371.722 252.643 371.812 253.021 371.962 253.309C372.118 253.597 372.373 253.741 372.727 253.741C372.991 253.741 373.189 253.669 373.321 253.525C373.459 253.375 373.528 253.162 373.528 252.886C373.528 252.586 373.465 252.337 373.339 252.139C373.213 251.941 373.012 251.722 372.736 251.482L371.512 250.402C371.266 250.186 371.086 249.955 370.972 249.709C370.864 249.457 370.81 249.151 370.81 248.791C370.81 248.257 370.963 247.843 371.269 247.549C371.575 247.255 371.992 247.108 372.52 247.108C373.096 247.108 373.531 247.261 373.825 247.567C374.119 247.873 374.296 248.347 374.356 248.989L373.492 249.223C373.462 248.797 373.378 248.47 373.24 248.242C373.108 248.008 372.868 247.891 372.52 247.891C372.262 247.891 372.064 247.96 371.926 248.098C371.788 248.23 371.719 248.428 371.719 248.692C371.719 248.908 371.755 249.091 371.827 249.241C371.899 249.385 372.022 249.532 372.196 249.682L373.429 250.762C373.747 251.044 373.999 251.35 374.185 251.68C374.377 252.01 374.473 252.385 374.473 252.805C374.473 253.339 374.311 253.762 373.987 254.074C373.663 254.386 373.243 254.542 372.727 254.542Z" fill="black"/>
<path d="M389.219 246.171H390.2L391.757 253.461H390.794L390.461 251.625H388.976L388.625 253.461H387.671L389.219 246.171ZM390.326 250.896L389.714 247.611L389.111 250.896H390.326ZM392.497 246.171H393.514V252.732H395.377V253.461H392.497V246.171Z" fill="black"/>
<path d="M419.804 250.551C419.144 250.551 418.667 250.344 418.373 249.93C418.079 249.51 417.932 248.889 417.932 248.067V245.628C417.932 245.064 417.989 244.602 418.103 244.242C418.223 243.876 418.424 243.597 418.706 243.405C418.994 243.207 419.387 243.108 419.885 243.108C420.557 243.108 421.04 243.279 421.334 243.621C421.634 243.963 421.784 244.5 421.784 245.232V245.502H420.83V245.277C420.83 244.929 420.809 244.662 420.767 244.476C420.725 244.284 420.635 244.14 420.497 244.044C420.365 243.948 420.167 243.9 419.903 243.9C419.621 243.9 419.411 243.966 419.273 244.098C419.135 244.224 419.045 244.395 419.003 244.611C418.967 244.827 418.949 245.115 418.949 245.475V248.175C418.949 248.733 419.015 249.135 419.147 249.381C419.285 249.621 419.546 249.741 419.93 249.741C420.308 249.741 420.566 249.609 420.704 249.345C420.848 249.081 420.92 248.658 420.92 248.076V247.572H419.993V246.852H421.838V250.461H421.199L421.1 249.624C420.872 250.242 420.44 250.551 419.804 250.551ZM424.035 243.171H425.016L426.573 250.461H425.61L425.277 248.625H423.792L423.441 250.461H422.487L424.035 243.171ZM425.142 247.896L424.53 244.611L423.927 247.896H425.142Z" fill="black"/>
<path d="M442.786 235.542C442.174 235.542 441.706 235.353 441.382 234.975C441.064 234.597 440.887 234.078 440.851 233.418L441.751 233.175C441.781 233.643 441.871 234.021 442.021 234.309C442.177 234.597 442.432 234.741 442.786 234.741C443.05 234.741 443.248 234.669 443.38 234.525C443.518 234.375 443.587 234.162 443.587 233.886C443.587 233.586 443.524 233.337 443.398 233.139C443.272 232.941 443.071 232.722 442.795 232.482L441.571 231.402C441.325 231.186 441.145 230.955 441.031 230.709C440.923 230.457 440.869 230.151 440.869 229.791C440.869 229.257 441.022 228.843 441.328 228.549C441.634 228.255 442.051 228.108 442.579 228.108C443.155 228.108 443.59 228.261 443.884 228.567C444.178 228.873 444.355 229.347 444.415 229.989L443.551 230.223C443.521 229.797 443.437 229.47 443.299 229.242C443.167 229.008 442.927 228.891 442.579 228.891C442.321 228.891 442.123 228.96 441.985 229.098C441.847 229.23 441.778 229.428 441.778 229.692C441.778 229.908 441.814 230.091 441.886 230.241C441.958 230.385 442.081 230.532 442.255 230.682L443.488 231.762C443.806 232.044 444.058 232.35 444.244 232.68C444.436 233.01 444.532 233.385 444.532 233.805C444.532 234.339 444.37 234.762 444.046 235.074C443.722 235.386 443.302 235.542 442.786 235.542ZM447.148 235.542C446.428 235.542 445.921 235.329 445.627 234.903C445.333 234.471 445.186 233.877 445.186 233.121V230.547C445.186 229.749 445.33 229.143 445.618 228.729C445.906 228.315 446.416 228.108 447.148 228.108C447.802 228.108 448.27 228.285 448.552 228.639C448.84 228.993 448.984 229.515 448.984 230.205V230.781H448.021V230.268C448.021 229.932 448.006 229.674 447.976 229.494C447.946 229.314 447.868 229.17 447.742 229.062C447.622 228.954 447.427 228.9 447.157 228.9C446.881 228.9 446.674 228.96 446.536 229.08C446.404 229.194 446.317 229.356 446.275 229.566C446.233 229.77 446.212 230.046 446.212 230.394V233.283C446.212 233.655 446.242 233.946 446.302 234.156C446.362 234.366 446.458 234.516 446.59 234.606C446.728 234.696 446.917 234.741 447.157 234.741C447.415 234.741 447.607 234.684 447.733 234.57C447.859 234.456 447.937 234.3 447.967 234.102C448.003 233.904 448.021 233.634 448.021 233.292V232.752H448.984V233.292C448.984 234.018 448.846 234.576 448.57 234.966C448.3 235.35 447.826 235.542 447.148 235.542Z" fill="black"/>
<path d="M449.067 208.171H449.76L451.83 213.013V208.171H452.676V215.461H452.028L449.931 210.484V215.461H449.067V208.171ZM455.649 215.542C454.929 215.542 454.422 215.329 454.128 214.903C453.834 214.471 453.687 213.877 453.687 213.121V210.547C453.687 209.749 453.831 209.143 454.119 208.729C454.407 208.315 454.917 208.108 455.649 208.108C456.303 208.108 456.771 208.285 457.053 208.639C457.341 208.993 457.485 209.515 457.485 210.205V210.781H456.522V210.268C456.522 209.932 456.507 209.674 456.477 209.494C456.447 209.314 456.369 209.17 456.243 209.062C456.123 208.954 455.928 208.9 455.658 208.9C455.382 208.9 455.175 208.96 455.037 209.08C454.905 209.194 454.818 209.356 454.776 209.566C454.734 209.77 454.713 210.046 454.713 210.394V213.283C454.713 213.655 454.743 213.946 454.803 214.156C454.863 214.366 454.959 214.516 455.091 214.606C455.229 214.696 455.418 214.741 455.658 214.741C455.916 214.741 456.108 214.684 456.234 214.57C456.36 214.456 456.438 214.3 456.468 214.102C456.504 213.904 456.522 213.634 456.522 213.292V212.752H457.485V213.292C457.485 214.018 457.347 214.576 457.071 214.966C456.801 215.35 456.327 215.542 455.649 215.542Z" fill="black"/>
<path d="M390.868 214.927H389.635V214.171H393.082V214.927H391.885V221.461H390.868V214.927ZM393.785 214.171H394.478L396.548 219.013V214.171H397.394V221.461H396.746L394.649 216.484V221.461H393.785V214.171Z" fill="black"/>
<path d="M398.067 196.171H399.084V199.609L400.758 196.171H401.703L400.263 199.384L401.937 203.461H400.947L399.552 200.041L399.084 200.887V203.461H398.067V196.171ZM403.639 200.887L402.064 196.171H403.009L404.125 199.69L405.223 196.171H406.177L404.611 200.887V203.461H403.639V200.887Z" fill="black"/>
<path d="M448.707 189.171H449.661L450.813 194.544L451.911 189.171H452.838L451.227 196.461H450.336L448.707 189.171ZM454.508 189.171H455.489L457.046 196.461H456.083L455.75 194.625H454.265L453.914 196.461H452.96L454.508 189.171ZM455.615 193.896L455.003 190.611L454.4 193.896H455.615Z" fill="black"/>
<path d="M430.324 183.71H431.17L431.953 188.948L432.934 183.737H433.654L434.644 188.975L435.409 183.71H436.237L435.067 191H434.329L433.312 185.6L432.286 191H431.512L430.324 183.71ZM436.764 183.71H437.718L438.87 189.083L439.968 183.71H440.895L439.284 191H438.393L436.764 183.71Z" fill="black"/>
<path d="M459.684 168.71H460.683L461.97 174.623L463.266 168.71H464.256L464.391 176H463.572L463.491 170.708L462.258 176H461.682L460.458 170.708L460.377 176H459.549L459.684 168.71ZM465.508 168.71H467.092C467.878 168.71 468.433 168.89 468.757 169.25C469.087 169.61 469.252 170.171 469.252 170.933V173.615C469.252 174.419 469.09 175.019 468.766 175.415C468.448 175.805 467.917 176 467.173 176H465.508V168.71ZM467.101 175.271C467.455 175.271 467.71 175.202 467.866 175.064C468.028 174.926 468.127 174.74 468.163 174.506C468.205 174.266 468.226 173.906 468.226 173.426V171.059C468.226 170.645 468.199 170.33 468.145 170.114C468.097 169.892 467.992 169.73 467.83 169.628C467.668 169.52 467.416 169.466 467.074 169.466H466.525V175.271H467.101Z" fill="black"/>
<path d="M471.567 170.71H473.151C473.937 170.71 474.492 170.89 474.816 171.25C475.146 171.61 475.311 172.171 475.311 172.933V175.615C475.311 176.419 475.149 177.019 474.825 177.415C474.507 177.805 473.976 178 473.232 178H471.567V170.71ZM473.16 177.271C473.514 177.271 473.769 177.202 473.925 177.064C474.087 176.926 474.186 176.74 474.222 176.506C474.264 176.266 474.285 175.906 474.285 175.426V173.059C474.285 172.645 474.258 172.33 474.204 172.114C474.156 171.892 474.051 171.73 473.889 171.628C473.727 171.52 473.475 171.466 473.133 171.466H472.584V177.271H473.16ZM476.313 170.71H479.139V171.466H477.33V173.878H478.797V174.598H477.33V177.271H479.157V178H476.313V170.71Z" fill="black"/>
<path d="M451.567 176.71H453.151C453.937 176.71 454.492 176.89 454.816 177.25C455.146 177.61 455.311 178.171 455.311 178.933V181.615C455.311 182.419 455.149 183.019 454.825 183.415C454.507 183.805 453.976 184 453.232 184H451.567V176.71ZM453.16 183.271C453.514 183.271 453.769 183.202 453.925 183.064C454.087 182.926 454.186 182.74 454.222 182.506C454.264 182.266 454.285 181.906 454.285 181.426V179.059C454.285 178.645 454.258 178.33 454.204 178.114C454.156 177.892 454.051 177.73 453.889 177.628C453.727 177.52 453.475 177.466 453.133 177.466H452.584V183.271H453.16ZM458.14 184.081C457.42 184.081 456.913 183.868 456.619 183.442C456.325 183.01 456.178 182.416 456.178 181.66V179.086C456.178 178.288 456.322 177.682 456.61 177.268C456.898 176.854 457.408 176.647 458.14 176.647C458.794 176.647 459.262 176.824 459.544 177.178C459.832 177.532 459.976 178.054 459.976 178.744V179.32H459.013V178.807C459.013 178.471 458.998 178.213 458.968 178.033C458.938 177.853 458.86 177.709 458.734 177.601C458.614 177.493 458.419 177.439 458.149 177.439C457.873 177.439 457.666 177.499 457.528 177.619C457.396 177.733 457.309 177.895 457.267 178.105C457.225 178.309 457.204 178.585 457.204 178.933V181.822C457.204 182.194 457.234 182.485 457.294 182.695C457.354 182.905 457.45 183.055 457.582 183.145C457.72 183.235 457.909 183.28 458.149 183.28C458.407 183.28 458.599 183.223 458.725 183.109C458.851 182.995 458.929 182.839 458.959 182.641C458.995 182.443 459.013 182.173 459.013 181.831V181.291H459.976V181.831C459.976 182.557 459.838 183.115 459.562 183.505C459.292 183.889 458.818 184.081 458.14 184.081Z" fill="black"/>
<path d="M441.067 287.171H443.884V287.9H442.084V290.33H443.479V291.05H442.084V294.461H441.067V287.171ZM444.583 287.171H445.6V293.732H447.463V294.461H444.583V287.171Z" fill="black"/>
<path d="M340.067 262.171H341.084V268.732H342.947V269.461H340.067V262.171ZM344.796 262.171H345.777L347.334 269.461H346.371L346.038 267.625H344.553L344.202 269.461H343.248L344.796 262.171ZM345.903 266.896L345.291 263.611L344.688 266.896H345.903Z" fill="black"/>
<path d="M461.5 179.5L465 177" stroke="black"/>
<path d="M152.719 174.71H153.7L155.257 182H154.294L153.961 180.164H152.476L152.125 182H151.171L152.719 174.71ZM153.826 179.435L153.214 176.15L152.611 179.435H153.826ZM155.772 181.271L157.914 175.439H155.907V174.71H158.994V175.151L156.735 181.271H158.994V182H155.772V181.271Z" fill="black"/>
<path d="M101.719 254.71H102.7L104.257 262H103.294L102.961 260.164H101.476L101.125 262H100.171L101.719 254.71ZM102.826 259.435L102.214 256.15L101.611 259.435H102.826ZM104.997 254.71H106.014V258.148L107.688 254.71H108.633L107.193 257.923L108.867 262H107.877L106.482 258.58L106.014 259.426V262H104.997V254.71Z" fill="black"/>
<path d="M22.567 199.71H23.584V202.86H25.456V199.71H26.473V207H25.456V203.589H23.584V207H22.567V199.71ZM27.6659 199.71H28.6649V207H27.6659V199.71Z" fill="black"/>
<path d="M194.567 177.71H195.26L197.33 182.552V177.71H198.176V185H197.528L195.431 180.023V185H194.567V177.71ZM199.439 177.71H200.438L201.725 183.623L203.021 177.71H204.011L204.146 185H203.327L203.246 179.708L202.013 185H201.437L200.213 179.708L200.132 185H199.304L199.439 177.71Z" fill="black"/>
<path d="M205.394 141.081C204.674 141.081 204.167 140.868 203.873 140.442C203.579 140.01 203.432 139.416 203.432 138.66V136.086C203.432 135.288 203.576 134.682 203.864 134.268C204.152 133.854 204.662 133.647 205.394 133.647C206.048 133.647 206.516 133.824 206.798 134.178C207.086 134.532 207.23 135.054 207.23 135.744V136.32H206.267V135.807C206.267 135.471 206.252 135.213 206.222 135.033C206.192 134.853 206.114 134.709 205.988 134.601C205.868 134.493 205.673 134.439 205.403 134.439C205.127 134.439 204.92 134.499 204.782 134.619C204.65 134.733 204.563 134.895 204.521 135.105C204.479 135.309 204.458 135.585 204.458 135.933V138.822C204.458 139.194 204.488 139.485 204.548 139.695C204.608 139.905 204.704 140.055 204.836 140.145C204.974 140.235 205.163 140.28 205.403 140.28C205.661 140.28 205.853 140.223 205.979 140.109C206.105 139.995 206.183 139.839 206.213 139.641C206.249 139.443 206.267 139.173 206.267 138.831V138.291H207.23V138.831C207.23 139.557 207.092 140.115 206.816 140.505C206.546 140.889 206.072 141.081 205.394 141.081ZM210.062 141.081C209.348 141.081 208.835 140.88 208.523 140.478C208.217 140.07 208.064 139.482 208.064 138.714V135.951C208.064 135.195 208.22 134.622 208.532 134.232C208.844 133.842 209.354 133.647 210.062 133.647C210.77 133.647 211.277 133.845 211.583 134.241C211.895 134.631 212.051 135.201 212.051 135.951V138.723C212.051 139.479 211.895 140.061 211.583 140.469C211.271 140.877 210.764 141.081 210.062 141.081ZM210.062 140.28C210.44 140.28 210.695 140.169 210.827 139.947C210.959 139.725 211.025 139.389 211.025 138.939V135.744C211.025 135.3 210.959 134.973 210.827 134.763C210.695 134.547 210.44 134.439 210.062 134.439C209.678 134.439 209.42 134.547 209.288 134.763C209.156 134.973 209.09 135.3 209.09 135.744V138.939C209.09 139.389 209.156 139.725 209.288 139.947C209.42 140.169 209.678 140.28 210.062 140.28Z" fill="black"/>
<path d="M159.448 134.081C158.938 134.081 158.539 133.979 158.251 133.775C157.969 133.571 157.774 133.286 157.666 132.92C157.558 132.554 157.504 132.095 157.504 131.543V126.71H158.476V131.588C158.476 132.14 158.539 132.56 158.665 132.848C158.797 133.136 159.058 133.28 159.448 133.28C159.838 133.28 160.096 133.136 160.222 132.848C160.354 132.56 160.42 132.14 160.42 131.588V126.71H161.383V131.543C161.383 132.095 161.329 132.554 161.221 132.92C161.113 133.286 160.918 133.571 160.636 133.775C160.354 133.979 159.958 134.081 159.448 134.081ZM163.255 127.466H162.022V126.71H165.469V127.466H164.272V134H163.255V127.466Z" fill="black"/>
<path d="M195.324 90.71H196.17L196.953 95.948L197.934 90.737H198.654L199.644 95.975L200.409 90.71H201.237L200.067 98H199.329L198.312 92.6L197.286 98H196.512L195.324 90.71ZM203.24 95.426L201.665 90.71H202.61L203.726 94.229L204.824 90.71H205.778L204.212 95.426V98H203.24V95.426Z" fill="black"/>
<path d="M188.684 44.71H189.683L190.97 50.623L192.266 44.71H193.256L193.391 52H192.572L192.491 46.708L191.258 52H190.682L189.458 46.708L189.377 52H188.549L188.684 44.71ZM195.309 45.466H194.076V44.71H197.523V45.466H196.326V52H195.309V45.466Z" fill="black"/>
<path d="M143.621 73.71H144.62V81H143.621V73.71ZM145.799 73.71H147.383C148.169 73.71 148.724 73.89 149.048 74.25C149.378 74.61 149.543 75.171 149.543 75.933V78.615C149.543 79.419 149.381 80.019 149.057 80.415C148.739 80.805 148.208 81 147.464 81H145.799V73.71ZM147.392 80.271C147.746 80.271 148.001 80.202 148.157 80.064C148.319 79.926 148.418 79.74 148.454 79.506C148.496 79.266 148.517 78.906 148.517 78.426V76.059C148.517 75.645 148.49 75.33 148.436 75.114C148.388 74.892 148.283 74.73 148.121 74.628C147.959 74.52 147.707 74.466 147.365 74.466H146.816V80.271H147.392Z" fill="black"/>
<path d="M119.567 111.71H120.26L122.33 116.552V111.71H123.176V119H122.528L120.431 114.023V119H119.567V111.71ZM123.962 111.71H124.916L126.068 117.083L127.166 111.71H128.093L126.482 119H125.591L123.962 111.71Z" fill="black"/>
<path d="M89.394 138.081C88.674 138.081 88.167 137.868 87.873 137.442C87.579 137.01 87.432 136.416 87.432 135.66V133.086C87.432 132.288 87.576 131.682 87.864 131.268C88.152 130.854 88.662 130.647 89.394 130.647C90.048 130.647 90.516 130.824 90.798 131.178C91.086 131.532 91.23 132.054 91.23 132.744V133.32H90.267V132.807C90.267 132.471 90.252 132.213 90.222 132.033C90.192 131.853 90.114 131.709 89.988 131.601C89.868 131.493 89.673 131.439 89.403 131.439C89.127 131.439 88.92 131.499 88.782 131.619C88.65 131.733 88.563 131.895 88.521 132.105C88.479 132.309 88.458 132.585 88.458 132.933V135.822C88.458 136.194 88.488 136.485 88.548 136.695C88.608 136.905 88.704 137.055 88.836 137.145C88.974 137.235 89.163 137.28 89.403 137.28C89.661 137.28 89.853 137.223 89.979 137.109C90.105 136.995 90.183 136.839 90.213 136.641C90.249 136.443 90.267 136.173 90.267 135.831V135.291H91.23V135.831C91.23 136.557 91.092 137.115 90.816 137.505C90.546 137.889 90.072 138.081 89.394 138.081ZM93.3508 130.71H94.3318L95.8888 138H94.9258L94.5928 136.164H93.1078L92.7568 138H91.8028L93.3508 130.71ZM94.4578 135.435L93.8458 132.15L93.2428 135.435H94.4578Z" fill="black"/>
<path d="M104.43 69.081C103.716 69.081 103.203 68.88 102.891 68.478C102.585 68.07 102.432 67.482 102.432 66.714V63.951C102.432 63.195 102.588 62.622 102.9 62.232C103.212 61.842 103.722 61.647 104.43 61.647C105.138 61.647 105.645 61.845 105.951 62.241C106.263 62.631 106.419 63.201 106.419 63.951V66.723C106.419 67.479 106.263 68.061 105.951 68.469C105.639 68.877 105.132 69.081 104.43 69.081ZM104.43 68.28C104.808 68.28 105.063 68.169 105.195 67.947C105.327 67.725 105.393 67.389 105.393 66.939V63.744C105.393 63.3 105.327 62.973 105.195 62.763C105.063 62.547 104.808 62.439 104.43 62.439C104.046 62.439 103.788 62.547 103.656 62.763C103.524 62.973 103.458 63.3 103.458 63.744V66.939C103.458 67.389 103.524 67.725 103.656 67.947C103.788 68.169 104.046 68.28 104.43 68.28ZM107.419 61.71H108.886C109.624 61.71 110.164 61.863 110.506 62.169C110.854 62.469 111.028 62.961 111.028 63.645C111.028 64.581 110.728 65.148 110.128 65.346L111.163 69H110.182L109.228 65.58H108.436V69H107.419V61.71ZM108.823 64.851C109.261 64.851 109.573 64.764 109.759 64.59C109.951 64.416 110.047 64.101 110.047 63.645C110.047 63.345 110.014 63.111 109.948 62.943C109.882 62.769 109.765 62.643 109.597 62.565C109.429 62.481 109.192 62.439 108.886 62.439H108.436V64.851H108.823Z" fill="black"/>
<path d="M112.324 28.71H113.17L113.953 33.948L114.934 28.737H115.654L116.644 33.975L117.409 28.71H118.237L117.067 36H116.329L115.312 30.6L114.286 36H113.512L112.324 28.71ZM120.003 28.71H120.984L122.541 36H121.578L121.245 34.164H119.76L119.409 36H118.455L120.003 28.71ZM121.11 33.435L120.498 30.15L119.895 33.435H121.11Z" fill="black"/>
<path d="M289.567 136.71H290.584V140.148L292.258 136.71H293.203L291.763 139.923L293.437 144H292.447L291.052 140.58L290.584 141.426V144H289.567V136.71ZM295.742 144.081C295.13 144.081 294.662 143.892 294.338 143.514C294.02 143.136 293.843 142.617 293.807 141.957L294.707 141.714C294.737 142.182 294.827 142.56 294.977 142.848C295.133 143.136 295.388 143.28 295.742 143.28C296.006 143.28 296.204 143.208 296.336 143.064C296.474 142.914 296.543 142.701 296.543 142.425C296.543 142.125 296.48 141.876 296.354 141.678C296.228 141.48 296.027 141.261 295.751 141.021L294.527 139.941C294.281 139.725 294.101 139.494 293.987 139.248C293.879 138.996 293.825 138.69 293.825 138.33C293.825 137.796 293.978 137.382 294.284 137.088C294.59 136.794 295.007 136.647 295.535 136.647C296.111 136.647 296.546 136.8 296.84 137.106C297.134 137.412 297.311 137.886 297.371 138.528L296.507 138.762C296.477 138.336 296.393 138.009 296.255 137.781C296.123 137.547 295.883 137.43 295.535 137.43C295.277 137.43 295.079 137.499 294.941 137.637C294.803 137.769 294.734 137.967 294.734 138.231C294.734 138.447 294.77 138.63 294.842 138.78C294.914 138.924 295.037 139.071 295.211 139.221L296.444 140.301C296.762 140.583 297.014 140.889 297.2 141.219C297.392 141.549 297.488 141.924 297.488 142.344C297.488 142.878 297.326 143.301 297.002 143.613C296.678 143.925 296.258 144.081 295.742 144.081Z" fill="black"/>
<path d="M279.567 101.71H280.26L282.33 106.552V101.71H283.176V109H282.528L280.431 104.023V109H279.567V101.71ZM284.322 101.71H287.148V102.466H285.339V104.878H286.806V105.598H285.339V108.271H287.166V109H284.322V101.71Z" fill="black"/>
<path d="M281.286 77.081C280.674 77.081 280.206 76.892 279.882 76.514C279.564 76.136 279.387 75.617 279.351 74.957L280.251 74.714C280.281 75.182 280.371 75.56 280.521 75.848C280.677 76.136 280.932 76.28 281.286 76.28C281.55 76.28 281.748 76.208 281.88 76.064C282.018 75.914 282.087 75.701 282.087 75.425C282.087 75.125 282.024 74.876 281.898 74.678C281.772 74.48 281.571 74.261 281.295 74.021L280.071 72.941C279.825 72.725 279.645 72.494 279.531 72.248C279.423 71.996 279.369 71.69 279.369 71.33C279.369 70.796 279.522 70.382 279.828 70.088C280.134 69.794 280.551 69.647 281.079 69.647C281.655 69.647 282.09 69.8 282.384 70.106C282.678 70.412 282.855 70.886 282.915 71.528L282.051 71.762C282.021 71.336 281.937 71.009 281.799 70.781C281.667 70.547 281.427 70.43 281.079 70.43C280.821 70.43 280.623 70.499 280.485 70.637C280.347 70.769 280.278 70.967 280.278 71.231C280.278 71.447 280.314 71.63 280.386 71.78C280.458 71.924 280.581 72.071 280.755 72.221L281.988 73.301C282.306 73.583 282.558 73.889 282.744 74.219C282.936 74.549 283.032 74.924 283.032 75.344C283.032 75.878 282.87 76.301 282.546 76.613C282.222 76.925 281.802 77.081 281.286 77.081ZM283.821 69.71H285.405C286.191 69.71 286.746 69.89 287.07 70.25C287.4 70.61 287.565 71.171 287.565 71.933V74.615C287.565 75.419 287.403 76.019 287.079 76.415C286.761 76.805 286.23 77 285.486 77H283.821V69.71ZM285.414 76.271C285.768 76.271 286.023 76.202 286.179 76.064C286.341 75.926 286.44 75.74 286.476 75.506C286.518 75.266 286.539 74.906 286.539 74.426V72.059C286.539 71.645 286.512 71.33 286.458 71.114C286.41 70.892 286.305 70.73 286.143 70.628C285.981 70.52 285.729 70.466 285.387 70.466H284.838V76.271H285.414Z" fill="black"/>
<path d="M278.567 40.71H279.26L281.33 45.552V40.71H282.176V48H281.528L279.431 43.023V48H278.567V40.71ZM283.322 40.71H284.906C285.692 40.71 286.247 40.89 286.571 41.25C286.901 41.61 287.066 42.171 287.066 42.933V45.615C287.066 46.419 286.904 47.019 286.58 47.415C286.262 47.805 285.731 48 284.987 48H283.322V40.71ZM284.915 47.271C285.269 47.271 285.524 47.202 285.68 47.064C285.842 46.926 285.941 46.74 285.977 46.506C286.019 46.266 286.04 45.906 286.04 45.426V43.059C286.04 42.645 286.013 42.33 285.959 42.114C285.911 41.892 285.806 41.73 285.644 41.628C285.482 41.52 285.23 41.466 284.888 41.466H284.339V47.271H284.915Z" fill="black"/>
<path d="M316.684 55.71H317.683L318.97 61.623L320.266 55.71H321.256L321.391 63H320.572L320.491 57.708L319.258 63H318.682L317.458 57.708L317.377 63H316.549L316.684 55.71ZM322.508 55.71H323.201L325.271 60.552V55.71H326.117V63H325.469L323.372 58.023V63H322.508V55.71Z" fill="black"/>
<path d="M352.324 67.71H353.17L353.953 72.948L354.934 67.737H355.654L356.644 72.975L357.409 67.71H358.237L357.067 75H356.329L355.312 69.6L354.286 75H353.512L352.324 67.71ZM359.178 67.71H360.177V75H359.178V67.71Z" fill="black"/>
<path d="M361.621 117.71H362.62V125H361.621V117.71ZM363.799 117.71H364.816V124.271H366.679V125H363.799V117.71Z" fill="black"/>
<path d="M385.621 111.71H386.62V119H385.621V111.71ZM387.799 111.71H388.492L390.562 116.552V111.71H391.408V119H390.76L388.663 114.023V119H387.799V111.71Z" fill="black"/>
<path d="M413.43 118.081C412.716 118.081 412.203 117.88 411.891 117.478C411.585 117.07 411.432 116.482 411.432 115.714V112.951C411.432 112.195 411.588 111.622 411.9 111.232C412.212 110.842 412.722 110.647 413.43 110.647C414.138 110.647 414.645 110.845 414.951 111.241C415.263 111.631 415.419 112.201 415.419 112.951V115.723C415.419 116.479 415.263 117.061 414.951 117.469C414.639 117.877 414.132 118.081 413.43 118.081ZM413.43 117.28C413.808 117.28 414.063 117.169 414.195 116.947C414.327 116.725 414.393 116.389 414.393 115.939V112.744C414.393 112.3 414.327 111.973 414.195 111.763C414.063 111.547 413.808 111.439 413.43 111.439C413.046 111.439 412.788 111.547 412.656 111.763C412.524 111.973 412.458 112.3 412.458 112.744V115.939C412.458 116.389 412.524 116.725 412.656 116.947C412.788 117.169 413.046 117.28 413.43 117.28ZM416.419 110.71H417.436V113.86H419.308V110.71H420.325V118H419.308V114.589H417.436V118H416.419V110.71Z" fill="black"/>
<path d="M390.684 76.71H391.683L392.97 82.623L394.266 76.71H395.256L395.391 84H394.572L394.491 78.708L393.258 84H392.682L391.458 78.708L391.377 84H390.549L390.684 76.71ZM396.562 76.71H397.561V84H396.562V76.71Z" fill="black"/>
<path d="M325.621 94.71H326.62V102H325.621V94.71ZM328.951 94.71H329.932L331.489 102H330.526L330.193 100.164H328.708L328.357 102H327.403L328.951 94.71ZM330.058 99.435L329.446 96.15L328.843 99.435H330.058Z" fill="black"/>
<path d="M336.684 135.71H337.683L338.97 141.623L340.266 135.71H341.256L341.391 143H340.572L340.491 137.708L339.258 143H338.682L337.458 137.708L337.377 143H336.549L336.684 135.71ZM344.371 143.081C343.657 143.081 343.144 142.88 342.832 142.478C342.526 142.07 342.373 141.482 342.373 140.714V137.951C342.373 137.195 342.529 136.622 342.841 136.232C343.153 135.842 343.663 135.647 344.371 135.647C345.079 135.647 345.586 135.845 345.892 136.241C346.204 136.631 346.36 137.201 346.36 137.951V140.723C346.36 141.479 346.204 142.061 345.892 142.469C345.58 142.877 345.073 143.081 344.371 143.081ZM344.371 142.28C344.749 142.28 345.004 142.169 345.136 141.947C345.268 141.725 345.334 141.389 345.334 140.939V137.744C345.334 137.3 345.268 136.973 345.136 136.763C345.004 136.547 344.749 136.439 344.371 136.439C343.987 136.439 343.729 136.547 343.597 136.763C343.465 136.973 343.399 137.3 343.399 137.744V140.939C343.399 141.389 343.465 141.725 343.597 141.947C343.729 142.169 343.987 142.28 344.371 142.28Z" fill="black"/>
<path d="M469.567 79.71H471.376C472.006 79.71 472.462 79.881 472.744 80.223C473.032 80.565 473.176 81.066 473.176 81.726C473.176 82.32 473.023 82.782 472.717 83.112C472.411 83.442 471.967 83.607 471.385 83.607H470.584V87H469.567V79.71ZM471.052 82.878C471.352 82.878 471.583 82.845 471.745 82.779C471.913 82.713 472.033 82.599 472.105 82.437C472.177 82.275 472.213 82.041 472.213 81.735C472.213 81.363 472.186 81.09 472.132 80.916C472.078 80.742 471.97 80.619 471.808 80.547C471.652 80.475 471.403 80.439 471.061 80.439H470.584V82.878H471.052ZM474.7 79.71H475.681L477.238 87H476.275L475.942 85.164H474.457L474.106 87H473.152L474.7 79.71ZM475.807 84.435L475.195 81.15L474.592 84.435H475.807Z" fill="black"/>
<path d="M482.567 54.71H483.26L485.33 59.552V54.71H486.176V62H485.528L483.431 57.023V62H482.567V54.71ZM488.438 59.426L486.863 54.71H487.808L488.924 58.229L490.022 54.71H490.976L489.41 59.426V62H488.438V59.426Z" fill="black"/>
<path d="M499.207 35.71H500.161L501.313 41.083L502.411 35.71H503.338L501.727 43H500.836L499.207 35.71ZM504.912 36.466H503.679V35.71H507.126V36.466H505.929V43H504.912V36.466Z" fill="black"/>
<path d="M509.567 41.71H510.26L512.33 46.552V41.71H513.176V49H512.528L510.431 44.023V49H509.567V41.71ZM514.322 41.71H515.339V44.86H517.211V41.71H518.228V49H517.211V45.589H515.339V49H514.322V41.71Z" fill="black"/>
<path d="M519.684 23.71H520.683L521.97 29.623L523.266 23.71H524.256L524.391 31H523.572L523.491 25.708L522.258 31H521.682L520.458 25.708L520.377 31H519.549L519.684 23.71ZM525.508 23.71H528.334V24.466H526.525V26.878H527.992V27.598H526.525V30.271H528.352V31H525.508V23.71Z" fill="black"/>
<path d="M504.684 54.71H505.683L506.97 60.623L508.266 54.71H509.256L509.391 62H508.572L508.491 56.708L507.258 62H506.682L505.458 56.708L505.377 62H504.549L504.684 54.71ZM511.66 54.71H512.641L514.198 62H513.235L512.902 60.164H511.417L511.066 62H510.112L511.66 54.71ZM512.767 59.435L512.155 56.15L511.552 59.435H512.767Z" fill="black"/>
<path d="M507.394 71.081C506.674 71.081 506.167 70.868 505.873 70.442C505.579 70.01 505.432 69.416 505.432 68.66V66.086C505.432 65.288 505.576 64.682 505.864 64.268C506.152 63.854 506.662 63.647 507.394 63.647C508.048 63.647 508.516 63.824 508.798 64.178C509.086 64.532 509.23 65.054 509.23 65.744V66.32H508.267V65.807C508.267 65.471 508.252 65.213 508.222 65.033C508.192 64.853 508.114 64.709 507.988 64.601C507.868 64.493 507.673 64.439 507.403 64.439C507.127 64.439 506.92 64.499 506.782 64.619C506.65 64.733 506.563 64.895 506.521 65.105C506.479 65.309 506.458 65.585 506.458 65.933V68.822C506.458 69.194 506.488 69.485 506.548 69.695C506.608 69.905 506.704 70.055 506.836 70.145C506.974 70.235 507.163 70.28 507.403 70.28C507.661 70.28 507.853 70.223 507.979 70.109C508.105 69.995 508.183 69.839 508.213 69.641C508.249 69.443 508.267 69.173 508.267 68.831V68.291H509.23V68.831C509.23 69.557 509.092 70.115 508.816 70.505C508.546 70.889 508.072 71.081 507.394 71.081ZM511 64.466H509.767V63.71H513.214V64.466H512.017V71H511V64.466Z" fill="black"/>
<path d="M515.567 58.71H517.034C517.772 58.71 518.312 58.863 518.654 59.169C519.002 59.469 519.176 59.961 519.176 60.645C519.176 61.581 518.876 62.148 518.276 62.346L519.311 66H518.33L517.376 62.58H516.584V66H515.567V58.71ZM516.971 61.851C517.409 61.851 517.721 61.764 517.907 61.59C518.099 61.416 518.195 61.101 518.195 60.645C518.195 60.345 518.162 60.111 518.096 59.943C518.03 59.769 517.913 59.643 517.745 59.565C517.577 59.481 517.34 59.439 517.034 59.439H516.584V61.851H516.971ZM520.288 58.71H521.287V66H520.288V58.71Z" fill="black"/>
<path d="M496.567 83.71H497.26L499.33 88.552V83.71H500.176V91H499.528L497.431 86.023V91H496.567V83.71ZM500.818 90.442C501.124 90.442 501.349 90.415 501.493 90.361C501.643 90.301 501.745 90.196 501.799 90.046C501.853 89.89 501.88 89.653 501.88 89.335V83.71H502.888V89.353C502.888 89.791 502.843 90.142 502.753 90.406C502.663 90.664 502.501 90.856 502.267 90.982C502.039 91.108 501.718 91.171 501.304 91.171H500.818V90.442Z" fill="black"/>
<path d="M175.378 4.66H177.506L178.178 11.268L179.032 4.674H180.698L181.594 11.226L182.28 4.66H184.38L183.022 16H180.838L179.872 9.154L178.962 16H176.75L175.378 4.66ZM185.602 4.66H190.698V6.368H188.108V9.182H190.082V10.918H188.108V14.306H190.726V16H185.602V4.66ZM194.873 16.168C193.791 16.168 192.983 15.8833 192.451 15.314C191.929 14.7353 191.649 13.8207 191.611 12.57L193.753 12.248C193.763 12.9667 193.847 13.4847 194.005 13.802C194.173 14.11 194.421 14.264 194.747 14.264C195.167 14.264 195.377 13.9887 195.377 13.438C195.377 12.9993 195.275 12.6213 195.069 12.304C194.873 11.9867 194.561 11.646 194.131 11.282L193.151 10.428C192.666 10.0173 192.288 9.58333 192.017 9.126C191.756 8.65933 191.625 8.10867 191.625 7.474C191.625 6.522 191.905 5.78933 192.465 5.276C193.035 4.76267 193.814 4.506 194.803 4.506C195.877 4.506 196.605 4.81867 196.987 5.444C197.379 6.06933 197.589 6.83 197.617 7.726L195.461 7.992C195.443 7.404 195.387 6.984 195.293 6.732C195.209 6.47067 195.018 6.34 194.719 6.34C194.505 6.34 194.337 6.43333 194.215 6.62C194.103 6.79733 194.047 6.998 194.047 7.222C194.047 7.60467 194.131 7.92667 194.299 8.188C194.477 8.44933 194.757 8.748 195.139 9.084L196.077 9.91C196.637 10.386 197.071 10.89 197.379 11.422C197.687 11.954 197.841 12.584 197.841 13.312C197.841 13.844 197.715 14.3293 197.463 14.768C197.221 15.1973 196.875 15.538 196.427 15.79C195.979 16.042 195.461 16.168 194.873 16.168ZM200.077 6.522H198.369V4.66H204.291V6.522H202.597V16H200.077V6.522Z" fill="#FFBB00"/>
<path d="M293.994 7.66H296.682L297.928 14.254L299.272 7.66H301.862L302.058 19H300.28L300.07 11.454L298.754 19H297.172L295.772 11.398L295.604 19H293.798L293.994 7.66ZM303.711 7.66H306.217V19H303.711V7.66ZM307.908 7.66H310.778C311.758 7.66 312.524 7.78133 313.074 8.024C313.625 8.26667 314.012 8.64933 314.236 9.172C314.47 9.68533 314.586 10.376 314.586 11.244V15.36C314.586 16.2373 314.47 16.9373 314.236 17.46C314.012 17.9827 313.625 18.37 313.074 18.622C312.533 18.874 311.777 19 310.806 19H307.908V7.66ZM310.806 17.264C311.17 17.264 311.436 17.2127 311.604 17.11C311.782 16.998 311.894 16.844 311.94 16.648C311.987 16.4427 312.01 16.144 312.01 15.752V10.81C312.01 10.446 311.982 10.1707 311.926 9.984C311.88 9.788 311.768 9.64333 311.59 9.55C311.422 9.45667 311.156 9.41 310.792 9.41H310.414V17.264H310.806ZM319.232 7.66H321.36L322.032 14.268L322.886 7.674H324.552L325.448 14.226L326.134 7.66H328.234L326.876 19H324.692L323.726 12.154L322.816 19H320.604L319.232 7.66ZM329.455 7.66H334.551V9.368H331.961V12.182H333.935V13.918H331.961V17.306H334.579V19H329.455V7.66ZM338.727 19.168C337.644 19.168 336.837 18.8833 336.305 18.314C335.782 17.7353 335.502 16.8207 335.465 15.57L337.607 15.248C337.616 15.9667 337.7 16.4847 337.859 16.802C338.027 17.11 338.274 17.264 338.601 17.264C339.021 17.264 339.231 16.9887 339.231 16.438C339.231 15.9993 339.128 15.6213 338.923 15.304C338.727 14.9867 338.414 14.646 337.985 14.282L337.005 13.428C336.52 13.0173 336.142 12.5833 335.871 12.126C335.61 11.6593 335.479 11.1087 335.479 10.474C335.479 9.522 335.759 8.78933 336.319 8.276C336.888 7.76267 337.668 7.506 338.657 7.506C339.73 7.506 340.458 7.81867 340.841 8.444C341.233 9.06933 341.443 9.83 341.471 10.726L339.315 10.992C339.296 10.404 339.24 9.984 339.147 9.732C339.063 9.47067 338.872 9.34 338.573 9.34C338.358 9.34 338.19 9.43333 338.069 9.62C337.957 9.79733 337.901 9.998 337.901 10.222C337.901 10.6047 337.985 10.9267 338.153 11.188C338.33 11.4493 338.61 11.748 338.993 12.084L339.931 12.91C340.491 13.386 340.925 13.89 341.233 14.422C341.541 14.954 341.695 15.584 341.695 16.312C341.695 16.844 341.569 17.3293 341.317 17.768C341.074 18.1973 340.729 18.538 340.281 18.79C339.833 19.042 339.315 19.168 338.727 19.168ZM343.93 9.522H342.222V7.66H348.144V9.522H346.45V19H343.93V9.522Z" fill="#56BD30"/>
<path d="M310.85 203.168C309.767 203.168 308.96 202.883 308.428 202.314C307.905 201.735 307.625 200.821 307.588 199.57L309.73 199.248C309.739 199.967 309.823 200.485 309.982 200.802C310.15 201.11 310.397 201.264 310.724 201.264C311.144 201.264 311.354 200.989 311.354 200.438C311.354 199.999 311.251 199.621 311.046 199.304C310.85 198.987 310.537 198.646 310.108 198.282L309.128 197.428C308.643 197.017 308.265 196.583 307.994 196.126C307.733 195.659 307.602 195.109 307.602 194.474C307.602 193.522 307.882 192.789 308.442 192.276C309.011 191.763 309.791 191.506 310.78 191.506C311.853 191.506 312.581 191.819 312.964 192.444C313.356 193.069 313.566 193.83 313.594 194.726L311.438 194.992C311.419 194.404 311.363 193.984 311.27 193.732C311.186 193.471 310.995 193.34 310.696 193.34C310.481 193.34 310.313 193.433 310.192 193.62C310.08 193.797 310.024 193.998 310.024 194.222C310.024 194.605 310.108 194.927 310.276 195.188C310.453 195.449 310.733 195.748 311.116 196.084L312.054 196.91C312.614 197.386 313.048 197.89 313.356 198.422C313.664 198.954 313.818 199.584 313.818 200.312C313.818 200.844 313.692 201.329 313.44 201.768C313.197 202.197 312.852 202.538 312.404 202.79C311.956 203.042 311.438 203.168 310.85 203.168ZM318.279 203.168C317.057 203.168 316.184 202.855 315.661 202.23C315.139 201.595 314.877 200.662 314.877 199.43V195.216C314.877 193.984 315.139 193.06 315.661 192.444C316.184 191.819 317.057 191.506 318.279 191.506C319.511 191.506 320.389 191.819 320.911 192.444C321.443 193.069 321.709 193.993 321.709 195.216V199.43C321.709 200.662 321.443 201.595 320.911 202.23C320.389 202.855 319.511 203.168 318.279 203.168ZM318.279 201.39C318.634 201.39 318.867 201.273 318.979 201.04C319.091 200.797 319.147 200.471 319.147 200.06V194.6C319.147 194.18 319.091 193.853 318.979 193.62C318.867 193.387 318.634 193.27 318.279 193.27C317.943 193.27 317.719 193.391 317.607 193.634C317.495 193.867 317.439 194.189 317.439 194.6V200.06C317.439 200.471 317.491 200.797 317.593 201.04C317.696 201.273 317.925 201.39 318.279 201.39ZM326.511 203.168C325.661 203.168 324.989 203.033 324.495 202.762C324 202.482 323.65 202.076 323.445 201.544C323.249 201.003 323.151 200.317 323.151 199.486V191.66H325.629V199.864C325.629 200.321 325.685 200.685 325.797 200.956C325.918 201.227 326.156 201.362 326.511 201.362C326.865 201.362 327.099 201.227 327.211 200.956C327.323 200.685 327.379 200.321 327.379 199.864V191.66H329.871V199.486C329.871 200.317 329.768 201.003 329.563 201.544C329.357 202.076 329.007 202.482 328.513 202.762C328.027 203.033 327.36 203.168 326.511 203.168ZM332.487 193.522H330.779V191.66H336.701V193.522H335.007V203H332.487V193.522ZM337.741 191.66H340.247V196.252H341.997V191.66H344.517V203H341.997V198.044H340.247V203H337.741V191.66Z" fill="#4AB0FB"/>
<path d="M484.088 304.168C482.865 304.168 481.993 303.855 481.47 303.23C480.947 302.595 480.686 301.662 480.686 300.43V296.216C480.686 294.984 480.947 294.06 481.47 293.444C481.993 292.819 482.865 292.506 484.088 292.506C485.32 292.506 486.197 292.819 486.72 293.444C487.252 294.069 487.518 294.993 487.518 296.216V300.43C487.518 301.662 487.252 302.595 486.72 303.23C486.197 303.855 485.32 304.168 484.088 304.168ZM484.088 302.39C484.443 302.39 484.676 302.273 484.788 302.04C484.9 301.797 484.956 301.471 484.956 301.06V295.6C484.956 295.18 484.9 294.853 484.788 294.62C484.676 294.387 484.443 294.27 484.088 294.27C483.752 294.27 483.528 294.391 483.416 294.634C483.304 294.867 483.248 295.189 483.248 295.6V301.06C483.248 301.471 483.299 301.797 483.402 302.04C483.505 302.273 483.733 302.39 484.088 302.39ZM489.956 294.522H488.248V292.66H494.17V294.522H492.476V304H489.956V294.522ZM495.21 292.66H497.716V297.252H499.466V292.66H501.986V304H499.466V299.044H497.716V304H495.21V292.66ZM503.713 292.66H508.809V294.368H506.219V297.182H508.193V298.918H506.219V302.306H508.837V304H503.713V292.66ZM509.975 292.66H513.097C514.338 292.66 515.276 292.879 515.911 293.318C516.545 293.757 516.863 294.536 516.863 295.656C516.863 296.412 516.765 297.014 516.569 297.462C516.373 297.91 516.009 298.26 515.477 298.512L517.031 304H514.441L513.195 298.918H512.481V304H509.975V292.66ZM513.181 297.476C513.685 297.476 514.035 297.345 514.231 297.084C514.436 296.813 514.539 296.412 514.539 295.88C514.539 295.367 514.445 294.984 514.259 294.732C514.072 294.471 513.75 294.34 513.293 294.34H512.481V297.476H513.181Z" fill="#B9B9B9"/>
<path d="M483.24 323.108C482.288 323.108 481.604 322.84 481.188 322.304C480.78 321.76 480.576 320.976 480.576 319.952V316.268C480.576 315.26 480.784 314.496 481.2 313.976C481.616 313.456 482.296 313.196 483.24 313.196C484.184 313.196 484.86 313.46 485.268 313.988C485.684 314.508 485.892 315.268 485.892 316.268V319.964C485.892 320.972 485.684 321.748 485.268 322.292C484.852 322.836 484.176 323.108 483.24 323.108ZM483.24 322.04C483.744 322.04 484.084 321.892 484.26 321.596C484.436 321.3 484.524 320.852 484.524 320.252V315.992C484.524 315.4 484.436 314.964 484.26 314.684C484.084 314.396 483.744 314.252 483.24 314.252C482.728 314.252 482.384 314.396 482.208 314.684C482.032 314.964 481.944 315.4 481.944 315.992V320.252C481.944 320.852 482.032 321.3 482.208 321.596C482.384 321.892 482.728 322.04 483.24 322.04ZM489.733 323.108C489.053 323.108 488.521 322.972 488.137 322.7C487.761 322.428 487.501 322.048 487.357 321.56C487.213 321.072 487.141 320.46 487.141 319.724V313.28H488.437V319.784C488.437 320.52 488.521 321.08 488.689 321.464C488.865 321.848 489.213 322.04 489.733 322.04C490.253 322.04 490.597 321.848 490.765 321.464C490.941 321.08 491.029 320.52 491.029 319.784V313.28H492.313V319.724C492.313 320.46 492.241 321.072 492.097 321.56C491.953 322.048 491.693 322.428 491.317 322.7C490.941 322.972 490.413 323.108 489.733 323.108ZM494.808 314.288H493.164V313.28H497.76V314.288H496.164V323H494.808V314.288ZM500.989 323.108C500.173 323.108 499.549 322.856 499.117 322.352C498.693 321.848 498.457 321.156 498.409 320.276L499.609 319.952C499.649 320.576 499.769 321.08 499.969 321.464C500.177 321.848 500.517 322.04 500.989 322.04C501.341 322.04 501.605 321.944 501.781 321.752C501.965 321.552 502.057 321.268 502.057 320.9C502.057 320.5 501.973 320.168 501.805 319.904C501.637 319.64 501.369 319.348 501.001 319.028L499.369 317.588C499.041 317.3 498.801 316.992 498.649 316.664C498.505 316.328 498.433 315.92 498.433 315.44C498.433 314.728 498.637 314.176 499.045 313.784C499.453 313.392 500.009 313.196 500.713 313.196C501.481 313.196 502.061 313.4 502.453 313.808C502.845 314.216 503.081 314.848 503.161 315.704L502.009 316.016C501.969 315.448 501.857 315.012 501.673 314.708C501.497 314.396 501.177 314.24 500.713 314.24C500.369 314.24 500.105 314.332 499.921 314.516C499.737 314.692 499.645 314.956 499.645 315.308C499.645 315.596 499.693 315.84 499.789 316.04C499.885 316.232 500.049 316.428 500.281 316.628L501.925 318.068C502.349 318.444 502.685 318.852 502.933 319.292C503.189 319.732 503.317 320.232 503.317 320.792C503.317 321.504 503.101 322.068 502.669 322.484C502.237 322.9 501.677 323.108 500.989 323.108ZM504.441 313.28H505.773V323H504.441V313.28ZM507.346 313.28H509.458C510.506 313.28 511.246 313.52 511.678 314C512.118 314.48 512.338 315.228 512.338 316.244V319.82C512.338 320.892 512.122 321.692 511.69 322.22C511.266 322.74 510.558 323 509.566 323H507.346V313.28ZM509.47 322.028C509.942 322.028 510.282 321.936 510.49 321.752C510.706 321.568 510.838 321.32 510.886 321.008C510.942 320.688 510.97 320.208 510.97 319.568V316.412C510.97 315.86 510.934 315.44 510.862 315.152C510.798 314.856 510.658 314.64 510.442 314.504C510.226 314.36 509.89 314.288 509.434 314.288H508.702V322.028H509.47ZM513.674 313.28H517.442V314.288H515.03V317.504H516.986V318.464H515.03V322.028H517.466V323H513.674V313.28ZM523.787 323.108C522.835 323.108 522.151 322.84 521.735 322.304C521.327 321.76 521.123 320.976 521.123 319.952V316.268C521.123 315.26 521.331 314.496 521.747 313.976C522.163 313.456 522.843 313.196 523.787 313.196C524.731 313.196 525.407 313.46 525.815 313.988C526.231 314.508 526.439 315.268 526.439 316.268V319.964C526.439 320.972 526.231 321.748 525.815 322.292C525.399 322.836 524.723 323.108 523.787 323.108ZM523.787 322.04C524.291 322.04 524.631 321.892 524.807 321.596C524.983 321.3 525.071 320.852 525.071 320.252V315.992C525.071 315.4 524.983 314.964 524.807 314.684C524.631 314.396 524.291 314.252 523.787 314.252C523.275 314.252 522.931 314.396 522.755 314.684C522.579 314.964 522.491 315.4 522.491 315.992V320.252C522.491 320.852 522.579 321.3 522.755 321.596C522.931 321.892 523.275 322.04 523.787 322.04ZM527.772 313.28H531.528V314.252H529.128V317.492H530.988V318.452H529.128V323H527.772V313.28ZM537.361 323.096C536.521 323.096 535.917 322.86 535.549 322.388C535.189 321.908 535.009 321.204 535.009 320.276H536.293C536.293 320.82 536.365 321.256 536.509 321.584C536.661 321.912 536.953 322.076 537.385 322.076C537.713 322.076 537.957 321.98 538.117 321.788C538.277 321.596 538.377 321.344 538.417 321.032C538.465 320.712 538.489 320.288 538.489 319.76C538.489 319.272 538.461 318.884 538.405 318.596C538.357 318.3 538.253 318.076 538.093 317.924C537.941 317.764 537.709 317.684 537.397 317.684C537.149 317.684 536.929 317.76 536.737 317.912C536.553 318.064 536.413 318.256 536.317 318.488H535.225V313.28H539.413V314.564H536.389L536.305 317.252C536.649 316.892 537.117 316.712 537.709 316.712C538.453 316.712 538.981 316.968 539.293 317.48C539.613 317.984 539.773 318.688 539.773 319.592C539.773 320.696 539.593 321.556 539.233 322.172C538.873 322.788 538.249 323.096 537.361 323.096ZM543.26 323.108C542.46 323.108 541.856 322.848 541.448 322.328C541.048 321.808 540.848 321.112 540.848 320.24V316.052C540.848 315.164 541.044 314.468 541.436 313.964C541.836 313.452 542.444 313.196 543.26 313.196C544.068 313.196 544.668 313.452 545.06 313.964C545.46 314.468 545.66 315.164 545.66 316.052V320.24C545.66 321.12 545.46 321.82 545.06 322.34C544.66 322.852 544.06 323.108 543.26 323.108ZM543.26 322.052C543.996 322.052 544.364 321.452 544.364 320.252V316.04C544.364 315.488 544.284 315.052 544.124 314.732C543.972 314.404 543.684 314.24 543.26 314.24C542.836 314.24 542.544 314.404 542.384 314.732C542.224 315.052 542.144 315.488 542.144 316.04V320.252C542.144 321.452 542.516 322.052 543.26 322.052ZM552.142 323.108C551.326 323.108 550.702 322.856 550.27 322.352C549.846 321.848 549.61 321.156 549.562 320.276L550.762 319.952C550.802 320.576 550.922 321.08 551.122 321.464C551.33 321.848 551.67 322.04 552.142 322.04C552.494 322.04 552.758 321.944 552.934 321.752C553.118 321.552 553.21 321.268 553.21 320.9C553.21 320.5 553.126 320.168 552.958 319.904C552.79 319.64 552.522 319.348 552.154 319.028L550.522 317.588C550.194 317.3 549.954 316.992 549.802 316.664C549.658 316.328 549.586 315.92 549.586 315.44C549.586 314.728 549.79 314.176 550.198 313.784C550.606 313.392 551.162 313.196 551.866 313.196C552.634 313.196 553.214 313.4 553.606 313.808C553.998 314.216 554.234 314.848 554.314 315.704L553.162 316.016C553.122 315.448 553.01 315.012 552.826 314.708C552.65 314.396 552.33 314.24 551.866 314.24C551.522 314.24 551.258 314.332 551.074 314.516C550.89 314.692 550.798 314.956 550.798 315.308C550.798 315.596 550.846 315.84 550.942 316.04C551.038 316.232 551.202 316.428 551.434 316.628L553.078 318.068C553.502 318.444 553.838 318.852 554.086 319.292C554.342 319.732 554.47 320.232 554.47 320.792C554.47 321.504 554.254 322.068 553.822 322.484C553.39 322.9 552.83 323.108 552.142 323.108ZM556.59 314.288H554.946V313.28H559.542V314.288H557.946V323H556.59V314.288ZM561.991 313.28H563.299L565.375 323H564.091L563.647 320.552H561.667L561.199 323H559.927L561.991 313.28ZM563.467 319.58L562.651 315.2L561.847 319.58H563.467ZM567.043 314.288H565.399V313.28H569.995V314.288H568.399V323H567.043V314.288ZM570.932 313.28H574.7V314.288H572.288V317.504H574.244V318.464H572.288V322.028H574.724V323H570.932V313.28ZM578.111 323.108C577.295 323.108 576.671 322.856 576.239 322.352C575.815 321.848 575.579 321.156 575.531 320.276L576.731 319.952C576.771 320.576 576.891 321.08 577.091 321.464C577.299 321.848 577.639 322.04 578.111 322.04C578.463 322.04 578.727 321.944 578.903 321.752C579.087 321.552 579.179 321.268 579.179 320.9C579.179 320.5 579.095 320.168 578.927 319.904C578.759 319.64 578.491 319.348 578.123 319.028L576.491 317.588C576.163 317.3 575.923 316.992 575.771 316.664C575.627 316.328 575.555 315.92 575.555 315.44C575.555 314.728 575.759 314.176 576.167 313.784C576.575 313.392 577.131 313.196 577.835 313.196C578.603 313.196 579.183 313.4 579.575 313.808C579.967 314.216 580.203 314.848 580.283 315.704L579.131 316.016C579.091 315.448 578.979 315.012 578.795 314.708C578.619 314.396 578.299 314.24 577.835 314.24C577.491 314.24 577.227 314.332 577.043 314.516C576.859 314.692 576.767 314.956 576.767 315.308C576.767 315.596 576.815 315.84 576.911 316.04C577.007 316.232 577.171 316.428 577.403 316.628L579.047 318.068C579.471 318.444 579.807 318.852 580.055 319.292C580.311 319.732 580.439 320.232 580.439 320.792C580.439 321.504 580.223 322.068 579.791 322.484C579.359 322.9 578.799 323.108 578.111 323.108Z" fill="#B9B9B9"/>
<path d="M431.84 6.66H433.604L435.928 12.12V6.66H438V18H436.306L433.982 12.12V18H431.84V6.66ZM442.936 18.168C441.713 18.168 440.84 17.8553 440.318 17.23C439.795 16.5953 439.534 15.662 439.534 14.43V10.216C439.534 8.984 439.795 8.06 440.318 7.444C440.84 6.81867 441.713 6.506 442.936 6.506C444.168 6.506 445.045 6.81867 445.568 7.444C446.1 8.06933 446.366 8.99333 446.366 10.216V14.43C446.366 15.662 446.1 16.5953 445.568 17.23C445.045 17.8553 444.168 18.168 442.936 18.168ZM442.936 16.39C443.29 16.39 443.524 16.2733 443.636 16.04C443.748 15.7973 443.804 15.4707 443.804 15.06V9.6C443.804 9.18 443.748 8.85333 443.636 8.62C443.524 8.38667 443.29 8.27 442.936 8.27C442.6 8.27 442.376 8.39133 442.264 8.634C442.152 8.86733 442.096 9.18933 442.096 9.6V15.06C442.096 15.4707 442.147 15.7973 442.25 16.04C442.352 16.2733 442.581 16.39 442.936 16.39ZM447.891 6.66H451.013C452.254 6.66 453.192 6.87933 453.827 7.318C454.461 7.75667 454.779 8.536 454.779 9.656C454.779 10.412 454.681 11.014 454.485 11.462C454.289 11.91 453.925 12.26 453.393 12.512L454.947 18H452.357L451.111 12.918H450.397V18H447.891V6.66ZM451.097 11.476C451.601 11.476 451.951 11.3453 452.147 11.084C452.352 10.8133 452.455 10.412 452.455 9.88C452.455 9.36667 452.361 8.984 452.175 8.732C451.988 8.47067 451.666 8.34 451.209 8.34H450.397V11.476H451.097ZM457.198 8.522H455.49V6.66H461.412V8.522H459.718V18H457.198V8.522ZM462.452 6.66H464.958V11.252H466.708V6.66H469.228V18H466.708V13.044H464.958V18H462.452V6.66ZM470.955 6.66H476.051V8.368H473.461V11.182H475.435V12.918H473.461V16.306H476.079V18H470.955V6.66ZM478.813 6.66H481.669L483.783 18H481.473L481.095 15.606H479.429L479.037 18H476.671L478.813 6.66ZM480.857 14.108L480.255 9.684L479.653 14.108H480.857ZM487.829 18.168C486.746 18.168 485.939 17.8833 485.407 17.314C484.884 16.7353 484.604 15.8207 484.567 14.57L486.709 14.248C486.718 14.9667 486.802 15.4847 486.961 15.802C487.129 16.11 487.376 16.264 487.703 16.264C488.123 16.264 488.333 15.9887 488.333 15.438C488.333 14.9993 488.23 14.6213 488.025 14.304C487.829 13.9867 487.516 13.646 487.087 13.282L486.107 12.428C485.621 12.0173 485.243 11.5833 484.973 11.126C484.711 10.6593 484.581 10.1087 484.581 9.474C484.581 8.522 484.861 7.78933 485.421 7.276C485.99 6.76267 486.769 6.506 487.759 6.506C488.832 6.506 489.56 6.81867 489.943 7.444C490.335 8.06933 490.545 8.83 490.573 9.726L488.417 9.992C488.398 9.404 488.342 8.984 488.249 8.732C488.165 8.47067 487.973 8.34 487.675 8.34C487.46 8.34 487.292 8.43333 487.171 8.62C487.059 8.79733 487.003 8.998 487.003 9.222C487.003 9.60467 487.087 9.92667 487.255 10.188C487.432 10.4493 487.712 10.748 488.095 11.084L489.033 11.91C489.593 12.386 490.027 12.89 490.335 13.422C490.643 13.954 490.797 14.584 490.797 15.312C490.797 15.844 490.671 16.3293 490.419 16.768C490.176 17.1973 489.831 17.538 489.383 17.79C488.935 18.042 488.417 18.168 487.829 18.168ZM493.032 8.522H491.324V6.66H497.246V8.522H495.552V18H493.032V8.522Z" fill="#EE5F01"/>
</svg>
