# This file uses centimeters as units for non-parametric coordinates.

mtllib playe_ring1.mtl
g default
v 1.214322 0.347008 0.603568
v 1.341825 0.347008 0.195706
v 1.337050 0.347008 -0.231595
v 1.200466 0.347008 -0.636506
v 0.945443 0.347008 -0.979393
v 0.596943 0.347008 -1.226691
v 0.189081 0.347008 -1.354193
v -0.238219 0.347008 -1.349419
v -0.643130 0.347008 -1.212835
v -0.986017 0.347008 -0.957812
v -1.233316 0.347008 -0.609312
v -1.360818 0.347008 -0.201451
v -1.356043 0.347008 0.225850
v -1.219460 0.347008 0.630761
v -0.964436 0.347008 0.973648
v -0.615937 0.347008 1.220946
v -0.208075 0.347008 1.348448
v 0.219225 0.347008 1.343674
v 0.624136 0.347008 1.207090
v 0.967023 0.347008 0.952067
v 1.062340 0.762928 0.528256
v 1.174008 0.762928 0.171045
v 1.169827 0.762928 -0.203190
v 1.050205 0.762928 -0.557817
v 0.826852 0.762928 -0.858122
v 0.521631 0.762928 -1.074709
v 0.164420 0.762928 -1.186377
v -0.209815 0.762928 -1.182195
v -0.564441 0.762928 -1.062574
v -0.864746 0.762928 -0.839221
v -1.081333 0.762928 -0.534001
v -1.193001 0.762928 -0.176790
v -1.188820 0.762928 0.197445
v -1.069198 0.762928 0.552072
v -0.845845 0.762928 0.852377
v -0.540625 0.762928 1.068964
v -0.183414 0.762928 1.180632
v 0.190821 0.762928 1.176450
v 0.545447 0.762928 1.056829
v 0.845752 0.762928 0.833476
v 1.005770 0.347008 0.500224
v 1.111545 0.347008 0.161866
v 1.107584 0.347008 -0.192618
v 0.994275 0.347008 -0.528528
v 0.782711 0.347008 -0.812983
v 0.493599 0.347008 -1.018139
v 0.155241 0.347008 -1.123913
v -0.199242 0.347008 -1.119953
v -0.535152 0.347008 -1.006644
v -0.819608 0.347008 -0.795080
v -1.024763 0.347008 -0.505969
v -1.130538 0.347008 -0.167611
v -1.126577 0.347008 0.186873
v -1.013269 0.347008 0.522783
v -0.801704 0.347008 0.807238
v -0.512593 0.347008 1.012394
v -0.174235 0.347008 1.118169
v 0.180248 0.347008 1.114208
v 0.516158 0.347008 1.000899
v 0.800613 0.347008 0.789335
v 1.005770 0.762928 0.500224
v 1.111545 0.762928 0.161866
v 1.107584 0.762928 -0.192618
v 0.994275 0.762928 -0.528528
v 0.782711 0.762928 -0.812983
v 0.493599 0.762928 -1.018139
v 0.155241 0.762928 -1.123913
v -0.199242 0.762928 -1.119953
v -0.535152 0.762928 -1.006644
v -0.819608 0.762928 -0.795080
v -1.024763 0.762928 -0.505969
v -1.130538 0.762928 -0.167611
v -1.126577 0.762928 0.186873
v -1.013269 0.762928 0.522783
v -0.801704 0.762928 0.807238
v -0.512593 0.762928 1.012394
v -0.174235 0.762928 1.118169
v 0.180248 0.762928 1.114208
v 0.516158 0.762928 1.000899
v 0.800613 0.762928 0.789335
v 1.005770 0.347008 0.500224
v 1.111545 0.347008 0.161866
v 1.107584 0.347008 -0.192618
v 0.994275 0.347008 -0.528528
v 0.782711 0.347008 -0.812983
v 0.493599 0.347008 -1.018139
v 0.155241 0.347008 -1.123913
v -0.199242 0.347008 -1.119953
v -0.535152 0.347008 -1.006644
v -0.819608 0.347008 -0.795080
v -1.024763 0.347008 -0.505969
v -1.130538 0.347008 -0.167611
v -1.126577 0.347008 0.186873
v -1.013269 0.347008 0.522783
v -0.801704 0.347008 0.807238
v -0.512593 0.347008 1.012394
v -0.174235 0.347008 1.118169
v 0.180248 0.347008 1.114208
v 0.516158 0.347008 1.000899
v 0.800613 0.347008 0.789335
v 1.005770 0.762928 0.500224
v 1.111545 0.762928 0.161866
v 1.107584 0.762928 -0.192618
v 0.994275 0.762928 -0.528528
v 0.782711 0.762928 -0.812983
v 0.493599 0.762928 -1.018139
v 0.155241 0.762928 -1.123913
v -0.199242 0.762928 -1.119953
v -0.535152 0.762928 -1.006644
v -0.819608 0.762928 -0.795080
v -1.024763 0.762928 -0.505969
v -1.130538 0.762928 -0.167611
v -1.126577 0.762928 0.186873
v -1.013269 0.762928 0.522783
v -0.801704 0.762928 0.807238
v -0.512593 0.762928 1.012394
v -0.174235 0.762928 1.118169
v 0.180248 0.762928 1.114208
v 0.516158 0.762928 1.000899
v 0.800613 0.762928 0.789335
vt 0.648603 0.107966
vt 0.626409 0.064408
vt 0.591842 0.029841
vt 0.548284 0.007647
vt 0.500000 -0.000000
vt 0.451716 0.007647
vt 0.408159 0.029841
vt 0.373591 0.064409
vt 0.351397 0.107966
vt 0.343750 0.156250
vt 0.351397 0.204534
vt 0.373591 0.248091
vt 0.408159 0.282659
vt 0.451716 0.304853
vt 0.500000 0.312500
vt 0.548284 0.304853
vt 0.591841 0.282659
vt 0.626409 0.248091
vt 0.648603 0.204534
vt 0.656250 0.156250
vt 0.375000 0.312500
vt 0.387500 0.312500
vt 0.400000 0.312500
vt 0.412500 0.312500
vt 0.425000 0.312500
vt 0.437500 0.312500
vt 0.450000 0.312500
vt 0.462500 0.312500
vt 0.475000 0.312500
vt 0.487500 0.312500
vt 0.500000 0.312500
vt 0.512500 0.312500
vt 0.525000 0.312500
vt 0.537500 0.312500
vt 0.550000 0.312500
vt 0.562500 0.312500
vt 0.575000 0.312500
vt 0.587500 0.312500
vt 0.600000 0.312500
vt 0.612500 0.312500
vt 0.625000 0.312500
vt 0.375000 0.688440
vt 0.387500 0.688440
vt 0.400000 0.688440
vt 0.412500 0.688440
vt 0.425000 0.688440
vt 0.437500 0.688440
vt 0.450000 0.688440
vt 0.462500 0.688440
vt 0.475000 0.688440
vt 0.487500 0.688440
vt 0.500000 0.688440
vt 0.512500 0.688440
vt 0.525000 0.688440
vt 0.537500 0.688440
vt 0.550000 0.688440
vt 0.562500 0.688440
vt 0.575000 0.688440
vt 0.587500 0.688440
vt 0.600000 0.688440
vt 0.612500 0.688440
vt 0.625000 0.688440
vt 0.648603 0.795466
vt 0.626409 0.751908
vt 0.591842 0.717341
vt 0.548284 0.695147
vt 0.500000 0.687500
vt 0.451716 0.695147
vt 0.408159 0.717341
vt 0.373591 0.751909
vt 0.351397 0.795466
vt 0.343750 0.843750
vt 0.351397 0.892034
vt 0.373591 0.935591
vt 0.408159 0.970159
vt 0.451716 0.992353
vt 0.500000 1.000000
vt 0.548284 0.992353
vt 0.591841 0.970159
vt 0.626409 0.935591
vt 0.648603 0.892034
vt 0.656250 0.843750
vt 0.626409 0.064408
vt 0.648603 0.107966
vt 0.591842 0.029841
vt 0.548284 0.007647
vt 0.500000 -0.000000
vt 0.451716 0.007647
vt 0.408159 0.029841
vt 0.373591 0.064409
vt 0.351397 0.107966
vt 0.343750 0.156250
vt 0.351397 0.204534
vt 0.373591 0.248091
vt 0.408159 0.282659
vt 0.451716 0.304853
vt 0.500000 0.312500
vt 0.548284 0.304853
vt 0.591841 0.282659
vt 0.626409 0.248091
vt 0.648603 0.204534
vt 0.656250 0.156250
vt 0.648603 0.892034
vt 0.626409 0.935591
vt 0.591841 0.970159
vt 0.548284 0.992353
vt 0.500000 1.000000
vt 0.451716 0.992353
vt 0.408159 0.970159
vt 0.373591 0.935591
vt 0.351397 0.892034
vt 0.343750 0.843750
vt 0.351397 0.795466
vt 0.373591 0.751909
vt 0.408159 0.717341
vt 0.451716 0.695147
vt 0.500000 0.687500
vt 0.548284 0.695147
vt 0.591842 0.717341
vt 0.626409 0.751908
vt 0.648603 0.795466
vt 0.656250 0.843750
vt 0.000000 0.000000
vt 1.000000 0.000000
vt 1.000000 1.000000
vt 0.000000 1.000000
vt 0.000000 0.000000
vt 1.000000 0.000000
vt 1.000000 1.000000
vt 0.000000 1.000000
vt 0.000000 0.000000
vt 1.000000 0.000000
vt 1.000000 1.000000
vt 0.000000 1.000000
vt 0.000000 0.000000
vt 1.000000 0.000000
vt 1.000000 1.000000
vt 0.000000 1.000000
vt 0.000000 0.000000
vt 1.000000 0.000000
vt 1.000000 1.000000
vt 0.000000 1.000000
vt 0.000000 0.000000
vt 1.000000 0.000000
vt 1.000000 1.000000
vt 0.000000 1.000000
vt 0.000000 0.000000
vt 1.000000 0.000000
vt 1.000000 1.000000
vt 0.000000 1.000000
vt 0.000000 0.000000
vt 1.000000 0.000000
vt 1.000000 1.000000
vt 0.000000 1.000000
vt 0.000000 0.000000
vt 1.000000 0.000000
vt 1.000000 1.000000
vt 0.000000 1.000000
vt 0.000000 0.000000
vt 1.000000 0.000000
vt 1.000000 1.000000
vt 0.000000 1.000000
vt 0.000000 0.000000
vt 1.000000 0.000000
vt 1.000000 1.000000
vt 0.000000 1.000000
vt 0.000000 0.000000
vt 1.000000 0.000000
vt 1.000000 1.000000
vt 0.000000 1.000000
vt 0.000000 0.000000
vt 1.000000 0.000000
vt 1.000000 1.000000
vt 0.000000 1.000000
vt 0.000000 0.000000
vt 1.000000 0.000000
vt 1.000000 1.000000
vt 0.000000 1.000000
vt 0.000000 0.000000
vt 1.000000 0.000000
vt 1.000000 1.000000
vt 0.000000 1.000000
vt 0.000000 0.000000
vt 1.000000 0.000000
vt 1.000000 1.000000
vt 0.000000 1.000000
vt 0.000000 0.000000
vt 1.000000 0.000000
vt 1.000000 1.000000
vt 0.000000 1.000000
vt 0.000000 0.000000
vt 1.000000 0.000000
vt 1.000000 1.000000
vt 0.000000 1.000000
vt 0.000000 0.000000
vt 1.000000 0.000000
vt 1.000000 1.000000
vt 0.000000 1.000000
vt 0.000000 0.000000
vt 1.000000 0.000000
vt 1.000000 1.000000
vt 0.000000 1.000000
vt 0.000000 0.000000
vt 1.000000 0.000000
vt 1.000000 1.000000
vt 0.000000 1.000000
vt 0.000000 0.000000
vt 1.000000 0.000000
vt 1.000000 1.000000
vt 0.000000 1.000000
vt 0.000000 0.000000
vt 1.000000 0.000000
vt 1.000000 1.000000
vt 0.000000 1.000000
vt 0.000000 0.000000
vt 1.000000 0.000000
vt 1.000000 1.000000
vt 0.000000 1.000000
vt 0.000000 0.000000
vt 1.000000 0.000000
vt 1.000000 1.000000
vt 0.000000 1.000000
vt 0.000000 0.000000
vt 1.000000 0.000000
vt 1.000000 1.000000
vt 0.000000 1.000000
vt 0.000000 0.000000
vt 1.000000 0.000000
vt 1.000000 1.000000
vt 0.000000 1.000000
vt 0.000000 0.000000
vt 1.000000 0.000000
vt 1.000000 1.000000
vt 0.000000 1.000000
vt 0.000000 0.000000
vt 1.000000 0.000000
vt 1.000000 1.000000
vt 0.000000 1.000000
vt 0.000000 0.000000
vt 1.000000 0.000000
vt 1.000000 1.000000
vt 0.000000 1.000000
vt 0.000000 0.000000
vt 1.000000 0.000000
vt 1.000000 1.000000
vt 0.000000 1.000000
vt 0.000000 0.000000
vt 1.000000 0.000000
vt 1.000000 1.000000
vt 0.000000 1.000000
vt 0.000000 0.000000
vt 1.000000 0.000000
vt 1.000000 1.000000
vt 0.000000 1.000000
vt 0.000000 0.000000
vt 1.000000 0.000000
vt 1.000000 1.000000
vt 0.000000 1.000000
vt 0.000000 0.000000
vt 1.000000 0.000000
vt 1.000000 1.000000
vt 0.000000 1.000000
vt 0.000000 0.000000
vt 1.000000 0.000000
vt 1.000000 1.000000
vt 0.000000 1.000000
vt 0.000000 0.000000
vt 1.000000 0.000000
vt 1.000000 1.000000
vt 0.000000 1.000000
vt 0.000000 0.000000
vt 1.000000 0.000000
vt 1.000000 1.000000
vt 0.000000 1.000000
vt 0.000000 0.000000
vt 1.000000 0.000000
vt 1.000000 1.000000
vt 0.000000 1.000000
vt 0.000000 0.000000
vt 1.000000 0.000000
vt 1.000000 1.000000
vt 0.000000 1.000000
vn 0.891341 -0.102094 0.441688
vn 0.984205 -0.102094 0.144630
vn 0.875082 0.466577 0.128595
vn 0.792515 0.466577 0.392717
vn 0.980727 -0.102094 -0.166585
vn 0.871991 0.466577 -0.148115
vn 0.881250 -0.102094 -0.461493
vn 0.783542 0.466577 -0.410326
vn 0.695509 -0.102094 -0.711227
vn 0.618396 0.466577 -0.632371
vn 0.441687 -0.102094 -0.891341
vn 0.392716 0.466577 -0.792515
vn 0.144630 -0.102094 -0.984205
vn 0.128594 0.466577 -0.875083
vn -0.166584 -0.102094 -0.980728
vn -0.148115 0.466577 -0.871991
vn -0.461493 -0.102094 -0.881250
vn -0.410326 0.466577 -0.783543
vn -0.711227 -0.102094 -0.695509
vn -0.632371 0.466577 -0.618396
vn -0.891341 -0.102094 -0.441687
vn -0.792515 0.466577 -0.392716
vn -0.984205 -0.102094 -0.144630
vn -0.875083 0.466577 -0.128594
vn -0.980727 -0.102094 0.166584
vn -0.871991 0.466577 0.148115
vn -0.881250 -0.102094 0.461493
vn -0.783542 0.466577 0.410326
vn -0.695509 -0.102094 0.711227
vn -0.618395 0.466577 0.632371
vn -0.441688 -0.102094 0.891341
vn -0.392716 0.466577 0.792515
vn -0.144630 -0.102093 0.984205
vn -0.128594 0.466577 0.875083
vn 0.166585 -0.102094 0.980728
vn 0.148115 0.466577 0.871991
vn 0.461493 -0.102094 0.881250
vn 0.410326 0.466577 0.783543
vn 0.711226 -0.102094 0.695510
vn 0.632370 0.466577 0.618396
vn 0.000000 -1.000000 0.000000
vn 0.000000 -1.000000 0.000000
vn 0.000000 -1.000000 -0.000000
vn 0.000000 -1.000000 -0.000000
vn 0.000000 -1.000000 -0.000000
vn 0.000000 -1.000000 -0.000000
vn 0.000000 -1.000000 0.000000
vn -0.000000 -1.000000 -0.000000
vn -0.000000 -1.000000 -0.000000
vn -0.000000 -1.000000 -0.000000
vn -0.000000 -1.000000 -0.000000
vn -0.000000 -1.000000 -0.000000
vn -0.000000 -1.000000 0.000000
vn -0.000000 -1.000000 0.000000
vn -0.000000 -1.000000 0.000000
vn -0.000000 -1.000000 0.000000
vn -0.000000 -1.000000 0.000000
vn 0.000000 -1.000000 0.000000
vn 0.000000 -1.000000 0.000000
vn 0.000000 -1.000000 0.000000
vn 0.000000 1.000000 -0.000000
vn 0.000000 1.000000 0.000000
vn 0.000000 1.000000 0.000000
vn 0.000000 1.000000 0.000001
vn 0.000000 1.000000 0.000001
vn 0.000000 1.000000 0.000000
vn 0.000000 1.000000 0.000001
vn 0.000000 1.000000 0.000001
vn 0.000000 1.000000 0.000000
vn 0.000000 1.000000 -0.000000
vn 0.000000 1.000000 0.000000
vn 0.000000 1.000000 0.000000
vn 0.000000 1.000000 -0.000000
vn 0.000000 1.000000 -0.000000
vn 0.000000 1.000000 -0.000000
vn 0.000000 1.000000 -0.000001
vn 0.000000 1.000000 -0.000000
vn 0.000000 1.000000 0.000000
vn 0.000000 1.000000 0.000000
vn 0.000000 1.000000 0.000000
vn -0.896023 0.000000 -0.444008
vn -0.989375 0.000000 -0.145390
vn -0.985879 0.000000 0.167460
vn -0.885879 0.000000 0.463917
vn 0.699645 0.000000 -0.714491
vn -0.444007 0.000000 0.896023
vn -0.145389 0.000000 0.989375
vn 0.167460 0.000000 0.985879
vn 0.463917 0.000000 0.885879
vn 0.714963 0.000000 0.699162
vn 0.896023 0.000000 0.444007
vn 0.989375 0.000000 0.145390
vn 0.985879 0.000000 -0.167459
vn 0.885879 0.000000 -0.463917
vn -0.699645 0.000000 0.714491
vn 0.444008 0.000000 -0.896023
vn 0.145390 0.000000 -0.989375
vn -0.167460 0.000000 -0.985879
vn -0.463917 0.000000 -0.885879
vn -0.714962 0.000000 -0.699163
vn -0.896023 0.000000 -0.444008
vn -0.989375 0.000000 -0.145390
vn -0.985879 0.000000 0.167460
vn -0.885879 0.000000 0.463917
vn -0.699162 0.000000 0.714963
vn -0.699162 0.000000 0.714963
vn -0.444007 0.000000 0.896023
vn -0.145389 0.000000 0.989375
vn 0.167460 0.000000 0.985879
vn 0.463917 0.000000 0.885879
vn 0.714963 0.000000 0.699162
vn 0.896023 0.000000 0.444007
vn 0.989375 0.000000 0.145390
vn 0.985879 0.000000 -0.167459
vn 0.885879 0.000000 -0.463917
vn 0.699163 0.000000 -0.714963
vn 0.699163 0.000000 -0.714963
vn 0.444008 0.000000 -0.896023
vn 0.145390 0.000000 -0.989375
vn -0.167460 0.000000 -0.985879
vn -0.463917 0.000000 -0.885879
vn -0.714962 0.000000 -0.699163
s 1
g pCylinder2
usemtl initialShadingGroup
f 1/21/1 2/22/2 22/43/3 21/42/4
f 2/22/2 3/23/5 23/44/6 22/43/3
f 3/23/5 4/24/7 24/45/8 23/44/6
f 4/24/7 5/25/9 25/46/10 24/45/8
f 5/25/9 6/26/11 26/47/12 25/46/10
f 6/26/11 7/27/13 27/48/14 26/47/12
f 7/27/13 8/28/15 28/49/16 27/48/14
f 8/28/15 9/29/17 29/50/18 28/49/16
f 9/29/17 10/30/19 30/51/20 29/50/18
f 10/30/19 11/31/21 31/52/22 30/51/20
f 11/31/21 12/32/23 32/53/24 31/52/22
f 12/32/23 13/33/25 33/54/26 32/53/24
f 13/33/25 14/34/27 34/55/28 33/54/26
f 14/34/27 15/35/29 35/56/30 34/55/28
f 15/35/29 16/36/31 36/57/32 35/56/30
f 16/36/31 17/37/33 37/58/34 36/57/32
f 17/37/33 18/38/35 38/59/36 37/58/34
f 18/38/35 19/39/37 39/60/38 38/59/36
f 19/39/37 20/40/39 40/61/40 39/60/38
f 20/40/39 1/41/1 21/62/4 40/61/40
f 2/2/2 1/1/1 41/84/41 42/83/42
f 3/3/5 2/2/2 42/83/42 43/85/43
f 4/4/7 3/3/5 43/85/43 44/86/44
f 5/5/9 4/4/7 44/86/44 45/87/45
f 6/6/11 5/5/9 45/87/45 46/88/46
f 7/7/13 6/6/11 46/88/46 47/89/47
f 8/8/15 7/7/13 47/89/47 48/90/48
f 9/9/17 8/8/15 48/90/48 49/91/49
f 10/10/19 9/9/17 49/91/49 50/92/50
f 11/11/21 10/10/19 50/92/50 51/93/51
f 12/12/23 11/11/21 51/93/51 52/94/52
f 13/13/25 12/12/23 52/94/52 53/95/53
f 14/14/27 13/13/25 53/95/53 54/96/54
f 15/15/29 14/14/27 54/96/54 55/97/55
f 16/16/31 15/15/29 55/97/55 56/98/56
f 17/17/33 16/16/31 56/98/56 57/99/57
f 18/18/35 17/17/33 57/99/57 58/100/58
f 19/19/37 18/18/35 58/100/58 59/101/59
f 20/20/39 19/19/37 59/101/59 60/102/60
f 1/1/1 20/20/39 60/102/60 41/84/41
f 21/81/4 22/80/3 62/104/61 61/103/62
f 22/80/3 23/79/6 63/105/63 62/104/61
f 23/79/6 24/78/8 64/106/64 63/105/63
f 24/78/8 25/77/10 65/107/65 64/106/64
f 25/77/10 26/76/12 66/108/66 65/107/65
f 26/76/12 27/75/14 67/109/67 66/108/66
f 27/75/14 28/74/16 68/110/68 67/109/67
f 28/74/16 29/73/18 69/111/69 68/110/68
f 29/73/18 30/72/20 70/112/70 69/111/69
f 30/72/20 31/71/22 71/113/71 70/112/70
f 31/71/22 32/70/24 72/114/72 71/113/71
f 32/70/24 33/69/26 73/115/73 72/114/72
f 33/69/26 34/68/28 74/116/74 73/115/73
f 34/68/28 35/67/30 75/117/75 74/116/74
f 35/67/30 36/66/32 76/118/76 75/117/75
f 36/66/32 37/65/34 77/119/77 76/118/76
f 37/65/34 38/64/36 78/120/78 77/119/77
f 38/64/36 39/63/38 79/121/79 78/120/78
f 39/63/38 40/82/40 80/122/80 79/121/79
f 40/82/40 21/81/4 61/103/62 80/122/80
f 42/123/42 41/124/41 81/125/81 82/126/82
f 43/127/43 42/128/42 82/129/82 83/130/83
f 44/131/44 43/132/43 83/133/83 84/134/84
f 45/135/45 44/136/44 84/137/84 85/138/85
f 46/139/46 45/140/45 85/141/85 86/142/86
f 47/143/47 46/144/46 86/145/86 87/146/87
f 48/147/48 47/148/47 87/149/87 88/150/88
f 49/151/49 48/152/48 88/153/88 89/154/89
f 50/155/50 49/156/49 89/157/89 90/158/90
f 51/159/51 50/160/50 90/161/90 91/162/91
f 52/163/52 51/164/51 91/165/91 92/166/92
f 53/167/53 52/168/52 92/169/92 93/170/93
f 54/171/54 53/172/53 93/173/93 94/174/94
f 55/175/55 54/176/54 94/177/94 95/178/95
f 56/179/56 55/180/55 95/181/95 96/182/96
f 57/183/57 56/184/56 96/185/96 97/186/97
f 58/187/58 57/188/57 97/189/97 98/190/98
f 59/191/59 58/192/58 98/193/98 99/194/99
f 60/195/60 59/196/59 99/197/99 100/198/100
f 41/199/41 60/200/60 100/201/100 81/202/81
f 82/203/82 81/204/81 101/205/101 102/206/102
f 83/207/83 82/208/82 102/209/102 103/210/103
f 84/211/84 83/212/83 103/213/103 104/214/104
f 85/215/105 84/216/84 104/217/104 105/218/106
f 86/219/86 85/220/105 105/221/106 106/222/107
f 87/223/87 86/224/86 106/225/107 107/226/108
f 88/227/88 87/228/87 107/229/108 108/230/109
f 89/231/89 88/232/88 108/233/109 109/234/110
f 90/235/90 89/236/89 109/237/110 110/238/111
f 91/239/91 90/240/90 110/241/111 111/242/112
f 92/243/92 91/244/91 111/245/112 112/246/113
f 93/247/93 92/248/92 112/249/113 113/250/114
f 94/251/94 93/252/93 113/253/114 114/254/115
f 95/255/116 94/256/94 114/257/115 115/258/117
f 96/259/96 95/260/116 115/261/117 116/262/118
f 97/263/97 96/264/96 116/265/118 117/266/119
f 98/267/98 97/268/97 117/269/119 118/270/120
f 99/271/99 98/272/98 118/273/120 119/274/121
f 100/275/100 99/276/99 119/277/121 120/278/122
f 81/279/81 100/280/100 120/281/122 101/282/101
