# This file uses centimeters as units for non-parametric coordinates.

mtllib R-playbutton.mtl
g default
v 0.043158 0.624017 -1.639299
v -0.016844 0.600789 -1.706944
v 0.045014 0.575902 -1.770647
v 0.043633 0.575433 -1.771966
v 0.045894 0.659348 -1.801202
v 0.044514 0.658880 -1.802522
v 0.044038 0.707463 -1.669855
v -0.015963 0.684236 -1.737499
vt 0.375000 0.000000
vt 0.625000 0.000000
vt 0.375000 0.250000
vt 0.625000 0.250000
vt 0.375000 0.500000
vt 0.625000 0.500000
vt 0.375000 0.750000
vt 0.625000 0.750000
vt 0.375000 1.000000
vt 0.625000 1.000000
vt 0.875000 0.000000
vt 0.875000 0.250000
vt 0.125000 0.000000
vt 0.125000 0.250000
vn -0.023748 -0.938778 0.343702
vn -0.023748 -0.938779 0.343702
vn -0.023748 -0.938778 0.343702
vn -0.023748 -0.938779 0.343702
vn 0.711905 -0.248084 -0.656998
vn 0.711905 -0.248084 -0.656998
vn 0.711905 -0.248084 -0.656998
vn 0.711905 -0.248084 -0.656998
vn 0.023748 0.938779 -0.343702
vn 0.023748 0.938779 -0.343702
vn 0.023748 0.938779 -0.343702
vn 0.023748 0.938779 -0.343702
vn -0.765946 0.228169 0.601054
vn -0.765946 0.228169 0.601054
vn -0.765946 0.228169 0.601054
vn -0.765946 0.228169 0.601054
vn -0.755566 -0.218198 -0.617665
vn -0.755566 -0.218198 -0.617665
vn -0.755566 -0.218198 -0.617665
vn -0.755566 -0.218198 -0.617665
vn 0.999863 -0.004740 0.015866
vn 0.999863 -0.004740 0.015866
vn 0.999863 -0.004740 0.015866
vn 0.999863 -0.004740 0.015866
s off
g pCube3
usemtl blinn4SG
f 1/1/1 2/2/2 4/4/3 3/3/4
f 3/3/5 4/4/6 6/6/7 5/5/8
f 5/5/9 6/6/10 8/8/11 7/7/12
f 7/7/13 8/8/14 2/10/15 1/9/16
f 2/2/17 8/11/18 6/12/19 4/4/20
f 7/13/21 1/1/22 3/3/23 5/14/24
