<svg class="header__logo" width="449" height="36"
	xmlns="http://www.w3.org/2000/svg" viewBox="0 0 460.8 35.72">
	<title>The HistoryMakers logo</title>
	<g>
		<g>
			<polygon points="212.43 2.86 220.04 0 217.18 7.61 212.43 2.86" style="fill:#ef5323;fill-rule:evenodd"/>
			<polygon points="191.9 32.87 184.29 35.72 187.15 28.11 191.9 32.87" style="fill:#ef5323;fill-rule:evenodd"/>
			<path d="M7.35,7.11H.72A.72.72,0,0,1,0,6.38V5.28a.72.72,0,0,1,.72-.72H16.88a.72.72,0,0,1,.72.72V6.38a.72.72,0,0,1-.72.72H10.25V30.5a.75.75,0,0,1-.72.72H8.08a.75.75,0,0,1-.72-.72Z" style="fill:#D3D3D3"/>
			<path d="M26.08,5.28a.75.75,0,0,1,.72-.72h1.49a.72.72,0,0,1,.72.72V16.4H44.48V5.28a.72.72,0,0,1,.72-.72h1.49a.75.75,0,0,1,.72.72V30.5a.75.75,0,0,1-.72.72H45.21a.72.72,0,0,1-.72-.72V19H29V30.5a.72.72,0,0,1-.72.72H26.81a.75.75,0,0,1-.72-.72Z" style="fill:#D3D3D3"/>
			<path d="M59.48,5.28a.72.72,0,0,1,.72-.72h15a.72.72,0,0,1,.72.72V6.38a.72.72,0,0,1-.72.72H62.41v9.3H73.35a.75.75,0,0,1,.72.72v1.11a.72.72,0,0,1-.72.72H62.41v9.72h12.8a.72.72,0,0,1,.72.72V30.5a.72.72,0,0,1-.72.72h-15a.72.72,0,0,1-.72-.72Z" style="fill:#D3D3D3"/>
			<path d="M90.29,5.28A.75.75,0,0,1,91,4.55h4.53a.72.72,0,0,1,.72.72v9.6h10.9V5.28a.72.72,0,0,1,.72-.72h4.53a.75.75,0,0,1,.72.72V30.5a.75.75,0,0,1-.72.72h-4.53a.72.72,0,0,1-.72-.72v-10H96.27v10a.72.72,0,0,1-.72.72H91a.75.75,0,0,1-.72-.72Z" style="fill:#D3D3D3"/>
			<path d="M124,5.28a.75.75,0,0,1,.72-.72h4.57a.75.75,0,0,1,.72.72V30.5a.75.75,0,0,1-.72.72h-4.57a.75.75,0,0,1-.72-.72Z" style="fill:#D3D3D3"/>
			<path d="M139.33,27.61l1.79-3.16a1,1,0,0,1,1.3-.23c.15.08,2.9,2.1,5.41,2.1A2.39,2.39,0,0,0,150.45,24c0-1.6-1.33-2.82-3.92-3.85-3.28-1.29-7.39-3.85-7.39-8.42,0-3.77,2.93-7.58,8.8-7.58A14.16,14.16,0,0,1,156.09,7a1,1,0,0,1,.23,1.22l-1.94,2.93c-.27.42-1,.76-1.3.5S150,9.39,147.63,9.39a2.21,2.21,0,0,0-2.4,1.94c0,1.41,1.14,2.48,4.15,3.7s7.7,3.51,7.7,8.69c0,3.92-3.39,7.89-9,7.89-5,0-7.7-2.06-8.57-2.93C139.14,28.29,139,28.14,139.33,27.61Z" style="fill:#D3D3D3"/>
			<path d="M169.45,10.15H164a.72.72,0,0,1-.72-.72V5.28a.72.72,0,0,1,.72-.72h16.92a.72.72,0,0,1,.72.72V9.43a.72.72,0,0,1-.72.72h-5.45V30.5a.75.75,0,0,1-.72.72h-4.57a.75.75,0,0,1-.72-.72Z" style="fill:#D3D3D3"/>
			<path d="M225.94,5.28a.72.72,0,0,1,.72-.72h11.39a8.29,8.29,0,0,1,8.3,8.23c0,3.51-2.32,6.33-5.64,7.66l5.22,9.68a.72.72,0,0,1-.65,1.1h-5.07a.7.7,0,0,1-.61-.34l-5.07-10.1h-2.63V30.5a.75.75,0,0,1-.72.72h-4.53a.72.72,0,0,1-.72-.72Zm11.62,10.67a3.05,3.05,0,0,0,2.9-3,2.92,2.92,0,0,0-2.9-2.9h-5.64v5.94Z" style="fill:#D3D3D3"/>
			<path d="M260.55,18.38,252.13,5.66a.71.71,0,0,1,.61-1.1h5a.76.76,0,0,1,.61.34l5.3,7.81,5.3-7.81a.7.7,0,0,1,.61-.34h5a.71.71,0,0,1,.61,1.1l-8.54,12.69V30.5a.75.75,0,0,1-.72.72h-4.54a.72.72,0,0,1-.72-.72Z" style="fill:#D3D3D3"/>
			<path d="M286,4.71a.73.73,0,0,1,.69-.53h.61a.73.73,0,0,1,.65.42l7.54,21h.19l7.43-21a.73.73,0,0,1,.65-.42h.61a.73.73,0,0,1,.69.53L310,30.31c.12.53-.11.91-.69.91h-1.52a.79.79,0,0,1-.69-.53l-3.39-19.62h-.15l-7,20.12a.77.77,0,0,1-.65.42h-.69a.77.77,0,0,1-.65-.42l-7.09-20.12h-.15L284,30.69a.74.74,0,0,1-.69.53H281.8c-.57,0-.8-.38-.69-.91Z" style="fill:#D3D3D3"/>
			<path d="M316.49,30.23,328.08,4.59a.69.69,0,0,1,.65-.42h.38a.69.69,0,0,1,.65.42l11.51,25.64a.67.67,0,0,1-.65,1h-1.52a.7.7,0,0,1-.65-.42l-2.82-6.29H322.09l-2.78,6.29a.7.7,0,0,1-.65.42h-1.53A.67.67,0,0,1,316.49,30.23Zm18.1-8.08c-1.87-4.15-3.7-8.34-5.56-12.5h-.3l-5.56,12.5Z" style="fill:#D3D3D3"/>
			<path d="M349.7,5.47a.9.9,0,0,1,.91-.91h1.11a.93.93,0,0,1,.91.92V16.25L364.52,4.93a1.13,1.13,0,0,1,.72-.38h1.87a.73.73,0,0,1,.46,1.33l-12,11.24L368.14,30a.75.75,0,0,1-.65,1.18h-1.94a1,1,0,0,1-.69-.27L352.63,18.19V30.31a.93.93,0,0,1-.91.91h-1.11a.9.9,0,0,1-.91-.91Z" style="fill:#D3D3D3"/>
			<path d="M377.35,5.28a.72.72,0,0,1,.72-.72h15a.72.72,0,0,1,.72.72V6.38a.72.72,0,0,1-.72.72h-12.8v9.3h10.93a.75.75,0,0,1,.72.72v1.11a.72.72,0,0,1-.72.72H380.28v9.72h12.8a.72.72,0,0,1,.72.72V30.5a.72.72,0,0,1-.72.72h-15a.72.72,0,0,1-.72-.72Z" style="fill:#D3D3D3"/>
			<path d="M404.19,5.28a.72.72,0,0,1,.72-.72h9.87a8.19,8.19,0,0,1,8.31,8.12,8.51,8.51,0,0,1-5.64,7.77l5.22,9.68a.72.72,0,0,1-.65,1.1h-1.94a.65.65,0,0,1-.61-.34l-5.07-10.1h-7.28V30.5a.75.75,0,0,1-.72.72h-1.49a.72.72,0,0,1-.72-.72Zm10.4,13a5.55,5.55,0,0,0,5.49-5.56,5.54,5.54,0,0,0-5.49-5.37H407.2V18.27Z" style="fill:#D3D3D3"/>
			<path d="M432,27.22c.19-.23.38-.5.57-.72.38-.5.8-.8,1.33-.34.27.23,3,2.9,6.44,2.9,3.09,0,5.11-1.94,5.11-4.19,0-2.63-2.29-4.19-6.67-6C434.54,17,432,15.3,432,11c0-2.59,2.06-6.78,8.12-6.78a12.46,12.46,0,0,1,6.52,1.94.85.85,0,0,1,.23,1.3c-.15.23-.3.5-.46.72a.86.86,0,0,1-1.33.34,10.68,10.68,0,0,0-5-1.75c-4,0-5.26,2.59-5.26,4.19,0,2.55,1.94,4,5.14,5.37,5.14,2.1,8.46,4,8.46,8.46,0,4-3.77,6.86-8.23,6.86a12.42,12.42,0,0,1-8-3.09A.84.84,0,0,1,432,27.22Z" style="fill:#D3D3D3"/>
			<path d="M208.67,13.72a7.59,7.59,0,0,1-6.35,11.79,7.5,7.5,0,0,1-4.17-1.27l-4.39,4.39A13.73,13.73,0,0,0,213.05,9.35Z" style="fill:#ef5323"/>
			<path d="M196,22.13a7.5,7.5,0,0,1-1.29-4.2,7.67,7.67,0,0,1,7.58-7.66,7.52,7.52,0,0,1,4.25,1.32l4.37-4.37a13.73,13.73,0,0,0-19.3,19.3Z" style="fill:#ef5323"/>
			<path d="M459.86,32a3.21,3.21,0,1,1,.94-2.27A3.08,3.08,0,0,1,459.86,32Zm-4.21-4.22a2.79,2.79,0,0,0,0,3.91,2.75,2.75,0,0,0,3.9,0,2.79,2.79,0,0,0,0-3.91,2.74,2.74,0,0,0-3.89,0Zm1.88.18a2.66,2.66,0,0,1,1,.13A.87.87,0,0,1,459,29a.77.77,0,0,1-.34.69,1.34,1.34,0,0,1-.51.17.85.85,0,0,1,.6.34,1,1,0,0,1,.19.54V31c0,.08,0,.17,0,.26a.56.56,0,0,0,0,.18l0,0h-.58V31a.86.86,0,0,0-.33-.8,1.47,1.47,0,0,0-.69-.11h-.49v1.38h-.62V27.94Zm.67.55a1.61,1.61,0,0,0-.75-.13h-.53v1.27h.56a1.69,1.69,0,0,0,.59-.08.63.63,0,0,0,.13-1.06Z" style="fill:#D3D3D3"/>
		</g>
	</g>
</svg>