# This file uses centimeters as units for non-parametric coordinates.

mtllib R-pausebutton.mtl
g default
v -0.162502 0.667742 -1.671753
v -0.134023 0.667256 -1.672762
v -0.162502 0.707959 -1.691143
v -0.134023 0.707473 -1.692152
v -0.166788 0.660641 -1.789288
v -0.138309 0.660154 -1.790298
v -0.166788 0.620424 -1.769899
v -0.138309 0.619937 -1.770908
vt 0.375000 0.000000
vt 0.625000 0.000000
vt 0.375000 0.250000
vt 0.625000 0.250000
vt 0.375000 0.500000
vt 0.625000 0.500000
vt 0.375000 0.750000
vt 0.625000 0.750000
vt 0.375000 1.000000
vt 0.625000 1.000000
vt 0.875000 0.000000
vt 0.875000 0.250000
vt 0.125000 0.000000
vt 0.125000 0.250000
vn 0.039306 0.433950 0.900079
vn 0.039306 0.433950 0.900079
vn 0.039306 0.433950 0.900079
vn 0.039306 0.433950 0.900079
vn -0.000000 0.900775 -0.434286
vn -0.000000 0.900775 -0.434286
vn -0.000000 0.900775 -0.434286
vn -0.000000 0.900775 -0.434286
vn -0.039306 -0.433950 -0.900079
vn -0.039306 -0.433950 -0.900079
vn -0.039306 -0.433950 -0.900079
vn -0.039306 -0.433950 -0.900079
vn 0.000000 -0.900775 0.434286
vn 0.000000 -0.900775 0.434286
vn 0.000000 -0.900775 0.434286
vn 0.000000 -0.900775 0.434286
vn 0.999227 -0.017070 -0.035406
vn 0.999227 -0.017070 -0.035406
vn 0.999227 -0.017070 -0.035406
vn 0.999227 -0.017070 -0.035406
vn -0.999227 0.017070 0.035406
vn -0.999227 0.017070 0.035406
vn -0.999227 0.017070 0.035406
vn -0.999227 0.017070 0.035406
s off
g pCube2 pCube4
usemtl blinn6SG
f 1/1/1 2/2/2 4/4/3 3/3/4
f 3/3/5 4/4/6 6/6/7 5/5/8
f 5/5/9 6/6/10 8/8/11 7/7/12
f 7/7/13 8/8/14 2/10/15 1/9/16
f 2/2/17 8/11/18 6/12/19 4/4/20
f 7/13/21 1/1/22 3/3/23 5/14/24
g default
v -0.115241 0.671577 -1.674580
v -0.086762 0.671102 -1.675595
v -0.115241 0.707465 -1.691385
v -0.086762 0.706990 -1.692400
v -0.119527 0.661260 -1.790060
v -0.091048 0.660785 -1.791074
v -0.119527 0.625371 -1.773254
v -0.091048 0.624896 -1.774269
vt 0.375000 0.000000
vt 0.625000 0.000000
vt 0.375000 0.250000
vt 0.625000 0.250000
vt 0.375000 0.500000
vt 0.625000 0.500000
vt 0.375000 0.750000
vt 0.625000 0.750000
vt 0.375000 1.000000
vt 0.625000 1.000000
vt 0.875000 0.000000
vt 0.875000 0.250000
vt 0.125000 0.000000
vt 0.125000 0.250000
vn 0.039306 0.423744 0.904929
vn 0.039306 0.423744 0.904929
vn 0.039306 0.423744 0.904929
vn 0.039306 0.423744 0.904929
vn 0.000000 0.905629 -0.424072
vn 0.000000 0.905629 -0.424072
vn 0.000000 0.905629 -0.424072
vn 0.000000 0.905629 -0.424072
vn -0.039306 -0.423744 -0.904929
vn -0.039306 -0.423744 -0.904929
vn -0.039306 -0.423744 -0.904929
vn -0.039306 -0.423744 -0.904929
vn -0.000000 -0.905629 0.424072
vn -0.000000 -0.905629 0.424072
vn -0.000000 -0.905629 0.424072
vn -0.000000 -0.905629 0.424072
vn 0.999227 -0.016668 -0.035596
vn 0.999227 -0.016668 -0.035596
vn 0.999227 -0.016668 -0.035596
vn 0.999227 -0.016668 -0.035596
vn -0.999227 0.016668 0.035596
vn -0.999227 0.016668 0.035596
vn -0.999227 0.016668 0.035596
vn -0.999227 0.016668 0.035596
s off
g pCube4
usemtl blinn5SG
f 9/15/25 10/16/26 12/18/27 11/17/28
f 11/17/29 12/18/30 14/20/31 13/19/32
f 13/19/33 14/20/34 16/22/35 15/21/36
f 15/21/37 16/22/38 10/24/39 9/23/40
f 10/16/41 16/25/42 14/26/43 12/18/44
f 15/27/45 9/15/46 11/17/47 13/28/48
g default
v -0.162502 0.667742 -1.671753
v -0.134023 0.667256 -1.672762
v -0.162502 0.707959 -1.691143
v -0.134023 0.707473 -1.692152
v -0.166788 0.660641 -1.789288
v -0.138309 0.660154 -1.790298
v -0.166788 0.620424 -1.769899
v -0.138309 0.619937 -1.770908
vt 0.375000 0.000000
vt 0.625000 0.000000
vt 0.375000 0.250000
vt 0.625000 0.250000
vt 0.375000 0.500000
vt 0.625000 0.500000
vt 0.375000 0.750000
vt 0.625000 0.750000
vt 0.375000 1.000000
vt 0.625000 1.000000
vt 0.875000 0.000000
vt 0.875000 0.250000
vt 0.125000 0.000000
vt 0.125000 0.250000
vn 0.039306 0.433950 0.900079
vn 0.039306 0.433950 0.900079
vn 0.039306 0.433950 0.900079
vn 0.039306 0.433950 0.900079
vn -0.000000 0.900775 -0.434286
vn -0.000000 0.900775 -0.434286
vn -0.000000 0.900775 -0.434286
vn -0.000000 0.900775 -0.434286
vn -0.039306 -0.433950 -0.900079
vn -0.039306 -0.433950 -0.900079
vn -0.039306 -0.433950 -0.900079
vn -0.039306 -0.433950 -0.900079
vn 0.000000 -0.900775 0.434286
vn 0.000000 -0.900775 0.434286
vn 0.000000 -0.900775 0.434286
vn 0.000000 -0.900775 0.434286
vn 0.999227 -0.017070 -0.035406
vn 0.999227 -0.017070 -0.035406
vn 0.999227 -0.017070 -0.035406
vn 0.999227 -0.017070 -0.035406
vn -0.999227 0.017070 0.035406
vn -0.999227 0.017070 0.035406
vn -0.999227 0.017070 0.035406
vn -0.999227 0.017070 0.035406
s off
g pCube2 pCube4
f 17/29/49 18/30/50 20/32/51 19/31/52
f 19/31/53 20/32/54 22/34/55 21/33/56
f 21/33/57 22/34/58 24/36/59 23/35/60
f 23/35/61 24/36/62 18/38/63 17/37/64
f 18/30/65 24/39/66 22/40/67 20/32/68
f 23/41/69 17/29/70 19/31/71 21/42/72
